<?xml version="1.0" encoding="iso-8859-1"?>
<!-- Generator: Adobe Illustrator 19.0.0, SVG Export Plug-In . SVG Version: 6.00 Build 0)  -->
<svg version="1.1" id="Capa_1" xmlns="http://www.w3.org/2000/svg" xmlns:xlink="http://www.w3.org/1999/xlink" x="0px" y="0px"
	 viewBox="0 0 470 470" style="enable-background:new 0 0 470 470;" xml:space="preserve">
<g>
	<polygon style="fill:#D35B38;" points="166.876,270.812 235,337.417 303.124,270.812 	"/>
	<polygon style="fill:#D35B38;" points="155.977,281.134 155.977,414.678 224.272,347.906 	"/>
	<polygon style="fill:#D35B38;" points="235,358.395 166.876,425 303.124,425 	"/>
	<polygon style="fill:#D35B38;" points="245.728,347.906 314.023,414.678 314.023,281.134 	"/>
	<path style="fill:#D35B38;" d="M417.44,455V203.359L349.987,74.046L235,15.904L120.013,74.046L52.56,203.36V455H417.44z
		 M329.023,432.5c0,4.142-3.357,7.5-7.5,7.5H148.477c-4.142,0-7.5-3.358-7.5-7.5V263.312c0-4.142,3.358-7.5,7.5-7.5h173.046
		c4.143,0,7.5,3.358,7.5,7.5V432.5z M108.477,225.812h81.501v-22.5c0-4.142,3.358-7.5,7.5-7.5s7.5,3.358,7.5,7.5v22.5h60.044V75.941
		h-60.044v97.371c0,4.142-3.358,7.5-7.5,7.5s-7.5-3.358-7.5-7.5V75.941h-5.5c-4.142,0-7.5-3.358-7.5-7.5s3.358-7.5,7.5-7.5h101.044
		c4.143,0,7.5,3.358,7.5,7.5s-3.357,7.5-7.5,7.5h-5.5v149.871h81.501c4.143,0,7.5,3.358,7.5,7.5s-3.357,7.5-7.5,7.5H108.477
		c-4.142,0-7.5-3.358-7.5-7.5S104.335,225.812,108.477,225.812z"/>
	<path style="fill:#4D3D36;" d="M454.94,455h-22.5V232.115l2.434,4.665c1.338,2.564,3.95,4.033,6.655,4.033
		c1.169,0,2.355-0.274,3.463-0.852c3.673-1.916,5.097-6.446,3.181-10.119L362.172,64.972c-0.725-1.39-1.866-2.517-3.266-3.224
		L238.385,0.807c-2.129-1.076-4.641-1.076-6.769,0L111.094,61.748c-1.398,0.707-2.541,1.834-3.266,3.224L21.827,229.843
		c-1.916,3.673-0.491,8.203,3.181,10.119c3.673,1.917,8.203,0.491,10.119-3.181l2.433-4.664V455h-22.5c-4.142,0-7.5,3.358-7.5,7.5
		s3.358,7.5,7.5,7.5h439.88c4.143,0,7.5-3.358,7.5-7.5S459.083,455,454.94,455z M120.013,74.046L235,15.904l114.987,58.142
		l67.453,129.313V455H52.56V203.36L120.013,74.046z"/>
	<path style="fill:#4D3D36;" d="M108.477,240.812h253.046c4.143,0,7.5-3.358,7.5-7.5s-3.357-7.5-7.5-7.5h-81.501V75.941h5.5
		c4.143,0,7.5-3.358,7.5-7.5s-3.357-7.5-7.5-7.5H184.478c-4.142,0-7.5,3.358-7.5,7.5s3.358,7.5,7.5,7.5h5.5v97.371
		c0,4.142,3.358,7.5,7.5,7.5s7.5-3.358,7.5-7.5V75.941h60.044v149.871h-60.044v-22.5c0-4.142-3.358-7.5-7.5-7.5s-7.5,3.358-7.5,7.5
		v22.5h-81.501c-4.142,0-7.5,3.358-7.5,7.5S104.335,240.812,108.477,240.812z"/>
	<path style="fill:#FFFFFF;" d="M321.523,255.812H148.477c-4.142,0-7.5,3.358-7.5,7.5V432.5c0,4.142,3.358,7.5,7.5,7.5h173.046
		c4.143,0,7.5-3.358,7.5-7.5V263.312C329.023,259.17,325.666,255.812,321.523,255.812z M155.977,281.134l68.295,66.772
		l-68.295,66.772V281.134z M166.876,270.812h136.248L235,337.417L166.876,270.812z M235,358.395L303.124,425H166.876L235,358.395z
		 M245.728,347.906l68.295-66.772v133.544L245.728,347.906z"/>
</g>
<g>
</g>
<g>
</g>
<g>
</g>
<g>
</g>
<g>
</g>
<g>
</g>
<g>
</g>
<g>
</g>
<g>
</g>
<g>
</g>
<g>
</g>
<g>
</g>
<g>
</g>
<g>
</g>
<g>
</g>
</svg>
