<?xml version="1.0" encoding="iso-8859-1"?>
<!-- Generator: Adobe Illustrator 19.0.0, SVG Export Plug-In . SVG Version: 6.00 Build 0)  -->
<svg version="1.1" id="Capa_1" xmlns="http://www.w3.org/2000/svg" xmlns:xlink="http://www.w3.org/1999/xlink" x="0px" y="0px"
	 viewBox="0 0 470 470" style="enable-background:new 0 0 470 470;" xml:space="preserve">
<g>
	<path style="fill:#5D734F;" d="M81.012,15c-2.066,0-3.747,1.681-3.747,3.748V44.71h315.472V18.748c0-2.066-1.682-3.748-3.748-3.748
		H81.012z"/>
	<path style="fill:#594B44;" d="M144.651,379.591L144.652,435h180.697v-97.909H144.651v12.5c0,4.142-3.357,7.499-7.499,7.5v15
		C141.294,372.092,144.651,375.449,144.651,379.591z"/>
	<path style="fill:#5D734F;" d="M144.651,292.091h180.697V124.153H144.651V292.091z M242.5,269.591c0,4.142-3.357,7.5-7.5,7.5
		s-7.5-3.358-7.5-7.5v-26.578c0-4.142,3.357-7.5,7.5-7.5s7.5,3.358,7.5,7.5V269.591z M291.425,269.591c0,4.142-3.357,7.5-7.5,7.5
		s-7.5-3.358-7.5-7.5v-26.578c0-4.142,3.357-7.5,7.5-7.5s7.5,3.358,7.5,7.5V269.591z M179.427,157.753
		c0-8.192,6.665-14.857,14.856-14.857h81.439c8.191,0,14.856,6.665,14.856,14.857v21.887c0,4.142-3.357,7.5-7.5,7.5h-96.152
		c-4.143,0-7.5-3.358-7.5-7.5V157.753z M178.576,243.013c0-4.142,3.357-7.5,7.5-7.5s7.5,3.358,7.5,7.5v26.578
		c0,4.142-3.357,7.5-7.5,7.5s-7.5-3.358-7.5-7.5V243.013z"/>
	<path style="fill:#BCC987;" d="M410.894,429.289L387.887,59.71H82.113L59.106,429.289c-0.428,6.871,1.85,13.328,6.412,18.183
		C70.081,452.326,76.384,455,83.268,455h46.385l-0.001-75.409c0-4.142,3.357-7.5,7.5-7.5c0.001,0,0.001-15,0.001-15
		c-4.144,0-7.501-3.358-7.501-7.5v-20c0-4.142,3.357-7.5,7.5-7.5h195.697c4.143,0,7.5,3.358,7.5,7.5V455h46.385
		c6.884,0,13.187-2.674,17.749-7.529C409.044,442.616,411.321,436.159,410.894,429.289z M211.85,74.71h46.302
		c4.143,0,7.5,3.358,7.5,7.5s-3.357,7.5-7.5,7.5H211.85c-4.143,0-7.5-3.358-7.5-7.5S207.707,74.71,211.85,74.71z M340.349,299.591
		c0,4.142-3.357,7.5-7.5,7.5H137.151c-4.143,0-7.5-3.358-7.5-7.5V116.653c0-4.142,3.357-7.5,7.5-7.5h195.697
		c4.143,0,7.5,3.358,7.5,7.5V299.591z"/>
	<path style="fill:#4D3D36;" d="M425.864,428.357L402.885,59.22c2.833-1.071,4.851-3.801,4.851-7.01V18.748
		C407.736,8.41,399.326,0,388.988,0H81.012C70.675,0,62.265,8.41,62.265,18.748V52.21c0,3.208,2.017,5.938,4.85,7.009
		L44.136,428.357c-0.688,11.046,3.024,21.483,10.452,29.387C62.015,465.647,72.2,470,83.268,470h53.885
		c1.989,0,3.896-0.79,5.304-2.197c1.406-1.407,2.196-3.314,2.196-5.303l0-12.5h180.696v12.5c0,4.142,3.357,7.5,7.5,7.5h53.885
		c11.067,0,21.253-4.353,28.68-12.257C422.841,449.839,426.552,439.403,425.864,428.357z M386.733,455h-46.385V329.591
		c0-4.142-3.357-7.5-7.5-7.5H137.151c-4.143,0-7.5,3.358-7.5,7.5v20c0,4.142,3.357,7.5,7.5,7.5c4.143-0.001,7.5-3.358,7.5-7.5v-12.5
		h180.697V435H144.652l-0.001-55.409c0-4.142-3.358-7.499-7.499-7.5c-4.144,0-7.501,3.358-7.501,7.5L129.652,455H83.268
		c-6.884,0-13.187-2.674-17.749-7.528c-4.563-4.855-6.84-11.313-6.412-18.183L82.113,59.71h305.774l23.006,369.579
		c0.428,6.87-1.85,13.327-6.411,18.182C399.92,452.326,393.617,455,386.733,455z M392.736,18.748V44.71H77.265V18.748
		c0-2.066,1.681-3.748,3.747-3.748h307.977C391.055,15,392.736,16.681,392.736,18.748z"/>
	<path style="fill:#4D3D36;" d="M332.849,109.153H137.151c-4.143,0-7.5,3.358-7.5,7.5v182.938c0,4.142,3.357,7.5,7.5,7.5h195.697
		c4.143,0,7.5-3.358,7.5-7.5V116.653C340.349,112.511,336.991,109.153,332.849,109.153z M325.349,292.091H144.651V124.153h180.697
		V292.091z"/>
	<rect x="194.427" y="157.896" style="fill:#BCC987;" width="81.152" height="14.244"/>
	<path style="fill:#4D3D36;" d="M186.927,187.14h96.152c4.143,0,7.5-3.358,7.5-7.5v-21.887c0-8.192-6.665-14.857-14.856-14.857
		h-81.439c-8.191,0-14.856,6.665-14.856,14.857v21.887C179.427,183.782,182.784,187.14,186.927,187.14z M194.427,157.896h81.152
		v14.244h-81.152V157.896z"/>
	<path style="fill:#4D3D36;" d="M211.85,89.71h46.302c4.143,0,7.5-3.358,7.5-7.5s-3.357-7.5-7.5-7.5H211.85
		c-4.143,0-7.5,3.358-7.5,7.5S207.707,89.71,211.85,89.71z"/>
	<path style="fill:#4D3D36;" d="M186.076,277.091c4.143,0,7.5-3.358,7.5-7.5v-26.578c0-4.142-3.357-7.5-7.5-7.5s-7.5,3.358-7.5,7.5
		v26.578C178.576,273.733,181.934,277.091,186.076,277.091z"/>
	<path style="fill:#4D3D36;" d="M235,235.513c-4.143,0-7.5,3.358-7.5,7.5v26.578c0,4.142,3.357,7.5,7.5,7.5s7.5-3.358,7.5-7.5
		v-26.578C242.5,238.871,239.143,235.513,235,235.513z"/>
	<path style="fill:#4D3D36;" d="M283.925,235.513c-4.143,0-7.5,3.358-7.5,7.5v26.578c0,4.142,3.357,7.5,7.5,7.5s7.5-3.358,7.5-7.5
		v-26.578C291.425,238.871,288.067,235.513,283.925,235.513z"/>
</g>
<g>
</g>
<g>
</g>
<g>
</g>
<g>
</g>
<g>
</g>
<g>
</g>
<g>
</g>
<g>
</g>
<g>
</g>
<g>
</g>
<g>
</g>
<g>
</g>
<g>
</g>
<g>
</g>
<g>
</g>
</svg>
