<?xml version="1.0" encoding="iso-8859-1"?>
<!-- Generator: Adobe Illustrator 19.0.0, SVG Export Plug-In . SVG Version: 6.00 Build 0)  -->
<svg version="1.1" id="Capa_1" xmlns="http://www.w3.org/2000/svg" xmlns:xlink="http://www.w3.org/1999/xlink" x="0px" y="0px"
	 viewBox="0 0 470 470" style="enable-background:new 0 0 470 470;" xml:space="preserve">
<g>
	<path style="fill:#87635C;" d="M126.285,125.047c0-16.144,13.133-29.277,29.276-29.277s29.276,13.134,29.276,29.277v1.37h188.561
		c-0.114-4.737-0.959-9.286-2.427-13.541c-0.269-0.776-0.566-1.539-0.876-2.295c-1.083,0.555-2.245,0.839-3.399,0.839
		c-2.504,0-4.951-1.253-6.373-3.534c-6.843-10.982-18.65-17.55-31.585-17.568c-3.741-0.006-6.905-2.767-7.418-6.472
		C315.89,44.598,281.921,15,242.305,15c-30.889,0-58.446,17.329-71.917,45.225c-1.42,2.939-4.576,4.621-7.809,4.164
		c-2.723-0.387-4.96-0.567-7.041-0.567c-24.264,0-44.64,17.358-48.448,41.274c-0.624,3.917-4.181,6.637-8.072,6.283
		c-0.013,0.499-0.038,0.996-0.038,1.498c0,4.673,0.575,9.207,1.655,13.541h25.648V125.047z"/>
	<path style="fill:#FFAD61;" d="M381.045,304.473h-26.252c-2.982,0-5.409,2.426-5.409,5.408s2.426,5.409,5.409,5.409h26.252
		c2.982,0,5.409-2.427,5.409-5.409S384.028,304.473,381.045,304.473z"/>
	<path style="fill:#D4ED85;" d="M171.444,215.785c-2.613-4.809-5.016-9.746-7.222-14.789H97.368l1.098,14.789H171.444z"/>
	<path style="fill:#D4ED85;" d="M320.711,200.996H180.712c2.445,5.067,5.125,10,8.02,14.789h182.802l1.098-14.789h-21.921
		c-4.142,0-7.5-3.357-7.5-7.5h-15C328.211,197.639,324.853,200.996,320.711,200.996z"/>
	<path style="fill:#BCC987;" d="M354.793,330.29c-8.643,0-16.031-5.41-19.001-13.014c-64.735-2.01-121.569-35.913-155.286-86.49
		H99.579L116.225,455h237.551l9.258-124.71H354.793z M156.061,397.891c-4.411,0-8-3.589-8-8s3.589-8,8-8s8,3.589,8,8
		S160.472,397.891,156.061,397.891z M196.061,417.891c-4.411,0-8-3.589-8-8s3.589-8,8-8s8,3.589,8,8
		S200.472,417.891,196.061,417.891z"/>
	<path style="fill:#BCC987;" d="M354.793,289.473h11.271l4.357-58.688H198.865c31.529,41.947,81.054,69.625,137.007,71.484
		C338.897,294.778,346.231,289.473,354.793,289.473z"/>
	<path style="fill:#BCC987;" d="M92.945,141.417l3.31,44.579h62.127c-6.687-19.6-10.32-40.602-10.32-62.438
		c0-4.143,3.358-7.5,7.5-7.5s7.5,3.357,7.5,7.5c0,21.953,3.985,42.99,11.256,62.438h146.395c4.142,0,7.5,3.357,7.5,7.5l15,0
		c0-4.143,3.358-7.5,7.5-7.5h23.034l3.31-44.579H184.837v2.43c0,4.143-3.358,7.5-7.5,7.5s-7.5-3.357-7.5-7.5v-18.8
		c0-7.872-6.404-14.277-14.276-14.277s-14.276,6.405-14.276,14.277v18.8c0,4.143-3.358,7.5-7.5,7.5s-7.5-3.357-7.5-7.5v-2.43H92.945
		z"/>
	<path style="fill:#4D3D36;" d="M107.091,105.096c3.808-23.916,24.184-41.274,48.448-41.274c2.08,0,4.317,0.181,7.041,0.567
		c3.233,0.457,6.389-1.225,7.809-4.164C183.859,32.329,211.416,15,242.305,15c39.616,0,73.585,29.598,79.016,68.847
		c0.513,3.705,3.677,6.466,7.418,6.472c12.935,0.019,24.743,6.586,31.585,17.568c1.421,2.281,3.869,3.534,6.373,3.534
		c1.154,0,2.315-0.284,3.399-0.839c0.188-0.096,0.378-0.183,0.56-0.297c3.516-2.19,4.59-6.816,2.399-10.332
		c-8.458-13.573-22.328-22.338-37.92-24.243c-4.139-20.113-14.756-38.444-30.309-52.129C287.542,8.374,265.338,0,242.305,0
		c-18.183,0-35.85,5.171-51.09,14.954c-13.309,8.543-24.245,20.227-31.876,34.002c-1.311-0.091-2.565-0.135-3.799-0.135
		c-15.336,0-30.174,5.504-41.781,15.497c-11.48,9.885-19.109,23.528-21.48,38.418c-0.651,4.091,2.137,7.935,6.228,8.586
		c0.172,0.028,0.343,0.041,0.514,0.056C102.91,111.733,106.466,109.013,107.091,105.096z"/>
	<path style="fill:#4D3D36;" d="M381.105,289.476l4.447-59.899c2.06-1.337,3.425-3.652,3.425-6.291c0-2.239-0.986-4.242-2.541-5.616
		l1.328-17.881c2.06-1.337,3.425-3.652,3.425-6.291c0-2.239-0.986-4.242-2.541-5.616l3.449-46.463h2.966c4.142,0,7.5-3.357,7.5-7.5
		s-3.358-7.5-7.5-7.5h-21.664H184.837v-1.37c0-16.144-13.133-29.277-29.276-29.277s-29.276,13.134-29.276,29.277v1.37h-25.648
		H74.938c-4.142,0-7.5,3.357-7.5,7.5s3.358,7.5,7.5,7.5h2.966l3.449,46.463c-1.555,1.374-2.541,3.378-2.541,5.616
		c0,2.639,1.365,4.954,3.425,6.291l1.327,17.881c-1.555,1.374-2.541,3.378-2.541,5.616c0,2.639,1.365,4.954,3.425,6.291L101.183,455
		h-1.853c-4.142,0-7.5,3.357-7.5,7.5s3.358,7.5,7.5,7.5h271.339c4.142,0,7.5-3.357,7.5-7.5s-3.358-7.5-7.5-7.5h-1.853l9.258-124.71
		h2.97c11.253,0,20.409-9.155,20.409-20.409C401.454,298.648,392.331,289.509,381.105,289.476z M381.045,315.29h-26.252
		c-2.982,0-5.409-2.427-5.409-5.409s2.426-5.408,5.409-5.408h26.252c2.982,0,5.409,2.426,5.409,5.408S384.028,315.29,381.045,315.29
		z M116.225,455L99.579,230.785h80.926c33.718,50.578,90.551,84.481,155.286,86.49c2.97,7.604,10.358,13.014,19.001,13.014h8.241
		L353.775,455H116.225z M133.785,151.347c4.142,0,7.5-3.357,7.5-7.5v-18.8c0-7.872,6.404-14.277,14.276-14.277
		s14.276,6.405,14.276,14.277v18.8c0,4.143,3.358,7.5,7.5,7.5s7.5-3.357,7.5-7.5v-2.43h192.218l-3.31,44.579h-23.034
		c-4.142,0-7.5,3.357-7.5,7.5c0,4.143,3.358,7.5,7.5,7.5h21.921l-1.098,14.789H188.733c-2.895-4.789-5.576-9.722-8.02-14.789
		h139.999c4.142,0,7.5-3.357,7.5-7.5c0-4.143-3.358-7.5-7.5-7.5H174.317c-7.27-19.448-11.256-40.485-11.256-62.438
		c0-4.143-3.358-7.5-7.5-7.5s-7.5,3.357-7.5,7.5c0,21.835,3.633,42.837,10.32,62.438H96.254l-3.31-44.579h33.34v2.43
		C126.285,147.989,129.643,151.347,133.785,151.347z M198.865,230.785h171.555l-4.357,58.688h-11.271
		c-8.562,0-15.896,5.306-18.921,12.796C279.92,300.41,230.394,272.732,198.865,230.785z M164.222,200.996
		c2.206,5.043,4.61,9.98,7.222,14.789H98.466l-1.098-14.789H164.222z"/>
	<path style="fill:#4D3D36;" d="M196.061,401.891c-4.411,0-8,3.589-8,8s3.589,8,8,8s8-3.589,8-8S200.472,401.891,196.061,401.891z"
		/>
	<path style="fill:#4D3D36;" d="M156.061,381.891c-4.411,0-8,3.589-8,8s3.589,8,8,8s8-3.589,8-8S160.472,381.891,156.061,381.891z"
		/>
</g>
<g>
</g>
<g>
</g>
<g>
</g>
<g>
</g>
<g>
</g>
<g>
</g>
<g>
</g>
<g>
</g>
<g>
</g>
<g>
</g>
<g>
</g>
<g>
</g>
<g>
</g>
<g>
</g>
<g>
</g>
</svg>
