<?xml version="1.0" encoding="iso-8859-1"?>
<!-- Generator: Adobe Illustrator 19.0.0, SVG Export Plug-In . SVG Version: 6.00 Build 0)  -->
<svg version="1.1" id="Capa_1" xmlns="http://www.w3.org/2000/svg" xmlns:xlink="http://www.w3.org/1999/xlink" x="0px" y="0px"
	 viewBox="0 0 470 470" style="enable-background:new 0 0 470 470;" xml:space="preserve">
<g>
	<path style="fill:#FFFFFF;" d="M57.161,386.05c-1.919,0-3.839-0.732-5.304-2.197l-1.941-1.941l-31.81,31.809l38.172,38.172
		l31.81-31.81l-15.017-15.017c-2.929-2.929-2.929-7.678,0-10.606c0,0-10.607-10.607-10.607-10.607
		C61,385.317,59.08,386.05,57.161,386.05z"/>
	<path style="fill:#BCC987;" d="M415.958,45.168L153.365,307.761c-1.465,1.464-3.385,2.197-5.304,2.197s-3.839-0.732-5.304-2.197
		c-2.929-2.929-2.929-7.678,0-10.606l8.719-8.719l-7.943-0.141l-83.011,83.01l1.942,1.942c2.929,2.929,2.929,7.678,0,10.606
		l10.607,10.607c2.93-2.929,7.677-2.929,10.607,0l15.017,15.017l83.01-83.01l-0.141-7.943l-8.718,8.718
		c-1.465,1.464-3.385,2.197-5.304,2.197s-3.839-0.732-5.304-2.197c-2.929-2.929-2.929-7.678,0-10.606L424.833,54.042L415.958,45.168
		z"/>
	
		<rect x="429.164" y="17.567" transform="matrix(0.7071 -0.7071 0.7071 0.7071 103.0993 318.025)" style="fill:#5D734F;" width="12.551" height="33.988"/>
	<path style="fill:#4D3D36;" d="M467.804,36.837l-34.64-34.64c-2.93-2.929-7.678-2.929-10.607,0l-19.481,19.481
		c-2.929,2.929-2.929,7.678,0,10.606l2.276,2.276L166.218,273.694l-25.603-0.454c-2.03-0.021-3.997,0.757-5.437,2.196l-90.56,90.559
		c-0.013,0.013-42.423,42.423-42.423,42.423c-2.929,2.929-2.929,7.678,0,10.606l48.778,48.779c1.407,1.407,3.314,2.197,5.304,2.197
		s3.896-0.79,5.304-2.197l42.412-42.412c0.01-0.01,90.571-90.571,90.571-90.571c1.438-1.439,2.231-3.401,2.195-5.436l-0.453-25.604
		L435.44,64.649l2.275,2.275c1.465,1.464,3.385,2.197,5.304,2.197s3.839-0.732,5.304-2.197l19.481-19.481
		C470.733,44.514,470.733,39.765,467.804,36.837z M418.986,26.982l8.875-8.875l24.033,24.033l-8.875,8.875L418.986,26.982z
		 M162.24,316.635c-2.929,2.929-2.929,7.678,0,10.606c1.465,1.464,3.385,2.197,5.304,2.197s3.839-0.732,5.304-2.197l8.718-8.718
		l0.141,7.943l-83.01,83.01L83.679,394.46c-2.93-2.929-7.678-2.929-10.607,0c-2.929,2.929-2.929,7.678,0,10.607l15.017,15.017
		l-31.81,31.81l-38.172-38.172l31.81-31.809l1.941,1.941c1.465,1.464,3.385,2.197,5.304,2.197s3.839-0.733,5.304-2.197
		c2.929-2.929,2.929-7.678,0-10.606l-1.942-1.942l83.011-83.01l7.943,0.141l-8.719,8.719c-2.929,2.929-2.929,7.678,0,10.606
		c1.465,1.464,3.385,2.197,5.304,2.197s3.839-0.732,5.304-2.197L415.958,45.168l8.875,8.875L162.24,316.635z"/>
</g>
<g>
</g>
<g>
</g>
<g>
</g>
<g>
</g>
<g>
</g>
<g>
</g>
<g>
</g>
<g>
</g>
<g>
</g>
<g>
</g>
<g>
</g>
<g>
</g>
<g>
</g>
<g>
</g>
<g>
</g>
</svg>
