<?xml version="1.0" encoding="iso-8859-1"?>
<!-- Generator: Adobe Illustrator 19.0.0, SVG Export Plug-In . SVG Version: 6.00 Build 0)  -->
<svg version="1.1" id="Capa_1" xmlns="http://www.w3.org/2000/svg" xmlns:xlink="http://www.w3.org/1999/xlink" x="0px" y="0px"
	 viewBox="0 0 470 470" style="enable-background:new 0 0 470 470;" xml:space="preserve">
<g>
	<path style="fill:#D4ED85;" d="M421.859,389.126c-0.402-0.32-0.75-0.684-1.07-1.066l-23.491-13.587
		c-3.586-2.074-4.812-6.662-2.737-10.247s6.662-4.81,10.247-2.737l18.477,10.687C443.772,325.401,455,278.34,455,238.825
		c0-121.257-98.691-219.907-220-219.907S15,117.568,15,238.825c0,39.514,11.228,86.576,31.715,133.35l18.477-10.687
		c3.583-2.072,8.174-0.848,10.247,2.737c2.074,3.585,0.849,8.173-2.737,10.247L49.21,388.06c-0.32,0.382-0.668,0.746-1.07,1.066
		c-13.34,10.626-16.948,29.793-8.394,44.584c6.198,10.715,17.748,17.372,30.144,17.372c6.071,0,12.079-1.618,17.373-4.681
		l29.452-17.035c8.041-4.651,13.79-12.155,16.187-21.13c2.397-8.975,1.156-18.346-3.495-26.387
		c-27.247-47.11-44.853-103.251-44.853-143.024c0-82.904,67.489-150.353,150.445-150.353s150.445,67.448,150.445,150.353
		c0,39.773-17.605,95.914-44.853,143.024c-4.651,8.041-5.893,17.412-3.495,26.387c2.396,8.975,8.146,16.479,16.187,21.13
		l29.452,17.035c5.294,3.063,11.302,4.681,17.373,4.681c12.396,0,23.945-6.657,30.144-17.372
		C438.808,418.919,435.199,399.752,421.859,389.126z M127.578,119.819c-33.697,30.413-53.023,73.789-53.023,119.007
		c0,42.041,17.701,98.763,46.195,148.03c3.313,5.728,4.199,12.404,2.491,18.8s-5.804,11.741-11.533,15.054l-29.45,17.036
		c-3.827,2.214-7.988,3.336-12.367,3.336c-8.838,0-17.071-4.743-21.487-12.378c-2.074-3.585-0.849-8.173,2.737-10.247
		c3.583-2.072,8.174-0.849,10.247,2.737c1.744,3.015,5.002,4.888,8.503,4.888c1.731,0,3.32-0.432,4.856-1.32l29.451-17.037
		c2.262-1.308,3.877-3.416,4.551-5.938c0.674-2.524,0.325-5.159-0.983-7.42c-24.743-42.782-41.676-91.22-46.67-131.933
		l-16.835,2.028c-0.304,0.036-0.606,0.055-0.906,0.055c-3.741,0-6.978-2.796-7.437-6.604c-0.495-4.112,2.437-7.848,6.55-8.343
		l17.31-2.085c-0.147-2.942-0.223-5.831-0.223-8.658c0-16.193,2.28-32.166,6.62-47.499l-16.544-6.981
		c-3.816-1.61-5.604-6.01-3.994-9.826s6.011-5.603,9.826-3.994l15.424,6.509c6.968-18.423,17.023-35.651,29.805-50.881
		l-13.175-10.179c-3.278-2.533-3.883-7.243-1.351-10.521c2.534-3.279,7.242-3.883,10.521-1.351l14.159,10.939
		c2.166-2.172,4.393-4.292,6.681-6.358c3.075-2.775,7.818-2.532,10.593,0.542C130.896,112.302,130.652,117.044,127.578,119.819z
		 M421.598,428.703c-4.416,7.636-12.649,12.379-21.487,12.379c-4.378,0-8.539-1.122-12.366-3.335l-29.453-17.037
		c-5.728-3.313-9.823-8.659-11.532-15.054c-1.707-6.396-0.823-13.071,2.49-18.8c28.495-49.268,46.196-105.989,46.196-148.03
		c0-88.419-71.976-160.354-160.445-160.354c-29.905,0-59.1,8.314-84.428,24.045c-3.517,2.186-8.143,1.105-10.328-2.414
		c-2.186-3.519-1.104-8.143,2.414-10.328c25.583-15.889,54.771-24.843,84.842-26.125V46.418c0-4.143,3.357-7.5,7.5-7.5
		s7.5,3.357,7.5,7.5v17.226c45.47,1.921,86.52,21.212,116.651,51.401l14.162-10.941c3.277-2.529,7.987-1.929,10.521,1.351
		c2.532,3.277,1.928,7.987-1.351,10.521l-13.168,10.173c12.636,15.022,22.799,32.185,29.861,50.859l15.36-6.482
		c3.813-1.608,8.215,0.178,9.826,3.994c1.61,3.816-0.178,8.216-3.994,9.826l-16.476,6.952c4.265,15.121,6.552,31.062,6.552,47.528
		c0,2.827-0.076,5.716-0.223,8.658l17.31,2.085c4.113,0.495,7.045,4.23,6.55,8.343c-0.459,3.808-3.695,6.604-7.437,6.604
		c-0.3,0-0.602-0.019-0.906-0.055l-16.835-2.028c-4.994,40.714-21.927,89.152-46.671,131.932c-1.308,2.261-1.656,4.896-0.982,7.42
		c0.674,2.522,2.29,4.632,4.551,5.939l29.451,17.036c1.536,0.889,3.125,1.32,4.856,1.32c3.501,0,6.76-1.873,8.504-4.889
		c2.073-3.586,6.66-4.811,10.247-2.737C422.446,420.53,423.672,425.118,421.598,428.703z"/>
	<path style="fill:#4D3D36;" d="M470,238.825C470,109.297,364.579,3.918,235,3.918S0,109.297,0,238.825
		c0,42.441,12.184,92.874,34.377,142.55c-15.418,15.695-18.854,40.412-7.614,59.845c8.87,15.336,25.396,24.862,43.128,24.862
		c8.705,0,17.31-2.315,24.883-6.696l29.452-17.035c11.51-6.657,19.738-17.397,23.169-30.243s1.654-26.258-5.003-37.768
		c-26.022-44.994-42.837-98.187-42.837-135.515c0-74.634,60.761-135.353,135.445-135.353s135.445,60.719,135.445,135.353
		c0,37.328-16.814,90.521-42.837,135.515c-6.657,11.51-8.434,24.922-5.003,37.768s11.659,23.586,23.169,30.243l29.452,17.035
		c7.573,4.381,16.178,6.696,24.883,6.696c17.732,0,34.258-9.526,43.128-24.862c11.24-19.433,7.804-44.149-7.614-59.845
		C457.816,331.699,470,281.267,470,238.825z M400.109,451.082c-6.071,0-12.079-1.618-17.373-4.681l-29.452-17.035
		c-8.041-4.651-13.79-12.155-16.187-21.13c-2.397-8.975-1.156-18.346,3.495-26.387c27.247-47.11,44.853-103.251,44.853-143.024
		c0-82.904-67.489-150.353-150.445-150.353S84.555,155.921,84.555,238.825c0,39.773,17.605,95.914,44.853,143.024
		c4.651,8.041,5.893,17.412,3.495,26.387c-2.396,8.975-8.146,16.479-16.187,21.13l-29.452,17.035
		c-5.294,3.063-11.302,4.681-17.373,4.681c-12.396,0-23.945-6.657-30.144-17.372c-8.555-14.791-4.946-33.958,8.394-44.584
		c0.402-0.32,0.75-0.684,1.07-1.066l23.491-13.587c3.586-2.074,4.812-6.662,2.737-10.247c-2.073-3.585-6.664-4.81-10.247-2.737
		l-18.477,10.687C26.228,325.401,15,278.34,15,238.825c0-121.257,98.691-219.907,220-219.907s220,98.65,220,219.907
		c0,39.514-11.228,86.576-31.715,133.35l-18.477-10.687c-3.585-2.072-8.173-0.848-10.247,2.737s-0.849,8.173,2.737,10.247
		l23.491,13.587c0.32,0.382,0.668,0.746,1.07,1.066c13.34,10.626,16.948,29.793,8.394,44.584
		C424.055,444.425,412.505,451.082,400.109,451.082z"/>
	<path style="fill:#4D3D36;" d="M117.527,108.685c-2.288,2.065-4.516,4.186-6.681,6.358l-14.159-10.939
		c-3.278-2.532-7.986-1.929-10.521,1.351c-2.532,3.277-1.928,7.987,1.351,10.521l13.175,10.179
		c-12.782,15.229-22.837,32.458-29.805,50.881l-15.424-6.509c-3.815-1.608-8.216,0.178-9.826,3.994s0.178,8.216,3.994,9.826
		l16.544,6.981c-4.341,15.333-6.62,31.306-6.62,47.499c0,2.827,0.076,5.716,0.223,8.658l-17.31,2.085
		c-4.113,0.495-7.045,4.23-6.55,8.343c0.459,3.809,3.695,6.604,7.437,6.604c0.3,0,0.603-0.019,0.906-0.055l16.835-2.028
		c4.994,40.713,21.927,89.151,46.67,131.933c1.309,2.261,1.657,4.896,0.983,7.42c-0.674,2.521-2.289,4.63-4.551,5.938
		l-29.451,17.037c-1.536,0.889-3.125,1.32-4.856,1.32c-3.501,0-6.759-1.873-8.503-4.888c-2.073-3.586-6.664-4.81-10.247-2.737
		c-3.586,2.074-4.812,6.662-2.737,10.247c4.416,7.635,12.649,12.378,21.487,12.378c4.379,0,8.54-1.122,12.367-3.336l29.45-17.036
		c5.729-3.313,9.825-8.658,11.533-15.054s0.822-13.072-2.491-18.8c-28.494-49.268-46.195-105.989-46.195-148.03
		c0-45.218,19.326-88.594,53.023-119.007c3.074-2.775,3.317-7.518,0.542-10.593C125.346,106.152,120.603,105.909,117.527,108.685z"
		/>
	<path style="fill:#4D3D36;" d="M418.86,418.456c-3.587-2.073-8.174-0.849-10.247,2.737c-1.744,3.016-5.003,4.889-8.504,4.889
		c-1.731,0-3.32-0.432-4.856-1.32l-29.451-17.036c-2.261-1.308-3.877-3.417-4.551-5.939c-0.674-2.524-0.325-5.159,0.982-7.42
		c24.743-42.78,41.677-91.218,46.671-131.932l16.835,2.028c0.305,0.036,0.606,0.055,0.906,0.055c3.741,0,6.978-2.797,7.437-6.604
		c0.495-4.112-2.437-7.848-6.55-8.343l-17.31-2.085c0.147-2.942,0.223-5.831,0.223-8.658c0-16.466-2.287-32.407-6.552-47.528
		l16.476-6.952c3.816-1.61,5.604-6.01,3.994-9.826c-1.611-3.816-6.013-5.603-9.826-3.994l-15.36,6.482
		c-7.063-18.675-17.225-35.837-29.861-50.859l13.168-10.173c3.278-2.533,3.883-7.243,1.351-10.521
		c-2.533-3.279-7.243-3.88-10.521-1.351l-14.162,10.941C329.02,84.855,287.97,65.565,242.5,63.644V46.418c0-4.143-3.357-7.5-7.5-7.5
		s-7.5,3.357-7.5,7.5v17.233c-30.07,1.282-59.259,10.236-84.842,26.125c-3.519,2.186-4.6,6.81-2.414,10.328
		c2.186,3.52,6.812,4.6,10.328,2.414C175.9,86.787,205.095,78.473,235,78.473c88.47,0,160.445,71.935,160.445,160.354
		c0,42.041-17.701,98.763-46.196,148.03c-3.313,5.729-4.197,12.404-2.49,18.8c1.709,6.395,5.805,11.741,11.532,15.054l29.453,17.037
		c3.827,2.213,7.988,3.335,12.366,3.335c8.838,0,17.071-4.743,21.487-12.379C423.672,425.118,422.446,420.53,418.86,418.456z"/>
</g>
<g>
</g>
<g>
</g>
<g>
</g>
<g>
</g>
<g>
</g>
<g>
</g>
<g>
</g>
<g>
</g>
<g>
</g>
<g>
</g>
<g>
</g>
<g>
</g>
<g>
</g>
<g>
</g>
<g>
</g>
</svg>
