<?xml version="1.0" encoding="iso-8859-1"?>
<!-- Generator: Adobe Illustrator 19.0.0, SVG Export Plug-In . SVG Version: 6.00 Build 0)  -->
<svg version="1.1" id="Capa_1" xmlns="http://www.w3.org/2000/svg" xmlns:xlink="http://www.w3.org/1999/xlink" x="0px" y="0px"
	 viewBox="0 0 465.837 465.837" style="enable-background:new 0 0 465.837 465.837;" xml:space="preserve">
<g>
	<path style="fill:#FFAD61;" d="M207.791,70.465l7.928-3.284c0.123-0.051,0.247-0.088,0.371-0.132l-18.564-52.466l-13.694,5.684
		L207.791,70.465z"/>
	<path style="fill:#FFAD61;" d="M173.608,105.44l3.284-7.928c0.051-0.123,0.113-0.238,0.169-0.356l-50.225-23.972l-5.664,13.701
		L173.608,105.44z"/>
	<path style="fill:#FFAD61;" d="M174.169,154.341l-3.283-7.927c-0.051-0.123-0.089-0.248-0.132-0.372l-52.466,18.564l5.683,13.694
		L174.169,154.341z"/>
	<path style="fill:#FFAD61;" d="M209.144,188.524l-7.927-3.284c-0.123-0.051-0.238-0.113-0.356-0.169l-23.973,50.226l13.702,5.664
		L209.144,188.524z"/>
	<path style="fill:#FFAD61;" d="M258.046,187.964l-7.928,3.283c-0.123,0.051-0.247,0.088-0.371,0.132l18.564,52.466l13.694-5.683
		L258.046,187.964z"/>
	<path style="fill:#FFAD61;" d="M292.229,152.988l-3.284,7.928c-0.051,0.123-0.112,0.237-0.169,0.356l50.226,23.972l5.664-13.701
		L292.229,152.988z"/>
	<path style="fill:#FFAD61;" d="M291.669,104.087l3.283,7.927c0.051,0.123,0.088,0.248,0.132,0.372l52.466-18.564l-5.683-13.694
		L291.669,104.087z"/>
	<path style="fill:#FFAD61;" d="M256.693,69.904l7.927,3.284c0.123,0.051,0.238,0.113,0.356,0.169l23.973-50.226l-13.702-5.664
		L256.693,69.904z"/>
	<path style="fill:#4D3D36;" d="M357.117,160.037l-66.592-23.563c-3.76-1.33-7.904,0.514-9.431,4.199l-0.134,0.323l-13.012-5.39
		c0.378-2.076,0.586-4.21,0.586-6.393c0-2.183-0.208-4.317-0.586-6.392l13.011-5.389l0.133,0.321
		c1.196,2.889,3.989,4.632,6.932,4.632c0.956,0,1.928-0.184,2.867-0.572c3.704-1.534,5.516-5.692,4.192-9.428
		c-0.044-0.124-0.081-0.249-0.132-0.372l-3.283-7.927l50.198-23.959l5.683,13.694l0.154,0.37c1.588,3.825,5.976,5.641,9.802,4.052
		c3.826-1.587,5.64-5.976,4.052-9.802l-8.865-21.36c-0.789-1.899-2.322-3.392-4.243-4.128c-1.921-0.736-4.06-0.651-5.915,0.234
		l-63.749,30.427c-3.6,1.718-5.225,5.953-3.699,9.639l0.133,0.322l-13.023,5.394c-2.445-3.525-5.508-6.588-9.033-9.033l5.394-13.023
		l0.321,0.133c0.938,0.389,1.911,0.573,2.867,0.573c2.943,0,5.735-1.743,6.932-4.632c1.534-3.703-0.125-7.925-3.703-9.63
		c-0.119-0.057-0.233-0.118-0.356-0.169l-7.927-3.284l18.554-52.438l13.702,5.664l0.37,0.153c3.827,1.583,8.213-0.237,9.796-4.065
		c1.583-3.828-0.238-8.214-4.066-9.796l-21.373-8.836c-1.9-0.786-4.04-0.757-5.919,0.08c-1.878,0.838-3.331,2.41-4.017,4.349
		l-23.562,66.593c-1.331,3.761,0.515,7.904,4.2,9.431l0.321,0.133l-5.39,13.012c-2.075-0.378-4.209-0.586-6.392-0.586
		c-2.183,0-4.317,0.208-6.392,0.586l-5.389-13.011l0.321-0.133c3.827-1.585,5.645-5.973,4.06-9.8
		c-1.535-3.704-5.694-5.513-9.428-4.191c-0.124,0.044-0.248,0.081-0.371,0.132l-7.928,3.284l-23.959-50.198l13.694-5.684
		l0.369-0.153c3.826-1.587,5.64-5.976,4.053-9.802c-1.588-3.826-5.979-5.642-9.802-4.052l-21.36,8.864
		c-1.9,0.788-3.393,2.321-4.128,4.242c-0.736,1.921-0.651,4.059,0.234,5.915l30.427,63.749c1.281,2.685,3.962,4.271,6.771,4.271
		c0.958,0,1.93-0.185,2.867-0.572l0.322-0.133l5.394,13.023c-3.525,2.445-6.588,5.508-9.033,9.033l-13.022-5.394l0.133-0.322
		c1.585-3.826-0.232-8.214-4.059-9.799c-3.706-1.533-7.925,0.124-9.631,3.702c-0.057,0.119-0.118,0.233-0.169,0.356l-3.284,7.928
		l-52.437-18.555l5.664-13.701l0.153-0.37c1.583-3.828-0.238-8.214-4.066-9.796c-3.826-1.583-8.213,0.237-9.796,4.065l-8.835,21.372
		c-0.786,1.9-0.756,4.04,0.081,5.919s2.41,3.331,4.348,4.017l66.592,23.563c0.826,0.292,1.67,0.432,2.501,0.432
		c2.953-0.001,5.738-1.756,6.929-4.632l0.133-0.322l13.012,5.39c-0.378,2.075-0.586,4.209-0.586,6.392
		c0,2.183,0.208,4.317,0.586,6.393l-13.011,5.39l-0.133-0.321c-1.585-3.827-5.971-5.646-9.799-4.06
		c-3.704,1.534-5.516,5.692-4.192,9.428c0.044,0.124,0.082,0.249,0.132,0.372l3.283,7.927L123.971,178.3l-5.683-13.694l-0.153-0.37
		c-1.588-3.826-5.977-5.644-9.802-4.052c-3.826,1.587-5.64,5.976-4.052,9.802l8.865,21.36c0.789,1.899,2.322,3.392,4.243,4.128
		c0.866,0.332,1.776,0.497,2.685,0.497c1.106,0,2.211-0.245,3.23-0.731l63.749-30.427c3.6-1.718,5.225-5.953,3.699-9.639
		l-0.133-0.322l13.024-5.395c2.445,3.525,5.508,6.588,9.033,9.033l-5.394,13.023l-0.321-0.133c-3.827-1.585-8.214,0.23-9.799,4.059
		c-1.534,3.703,0.125,7.925,3.703,9.63c0.119,0.057,0.233,0.118,0.356,0.169l7.927,3.284l-18.554,52.438l-13.702-5.664l-0.37-0.153
		c-3.825-1.583-8.213,0.237-9.796,4.065c-1.583,3.828,0.238,8.214,4.066,9.796l21.373,8.836c0.918,0.38,1.892,0.569,2.865,0.569
		c1.042,0,2.083-0.217,3.054-0.649c1.878-0.838,3.331-2.41,4.017-4.349l23.562-66.593c1.331-3.761-0.515-7.904-4.2-9.431
		l-0.321-0.133l5.39-13.012c2.075,0.378,4.209,0.586,6.392,0.586c2.183,0,4.317-0.208,6.392-0.586l5.389,13.011l-0.32,0.133
		c-3.827,1.585-5.645,5.972-4.06,9.799c1.533,3.705,5.691,5.517,9.428,4.193c0.124-0.044,0.248-0.081,0.371-0.132l7.928-3.283
		l23.959,50.198l-13.694,5.683l-0.37,0.154c-3.826,1.588-5.64,5.976-4.052,9.802c1.198,2.886,3.989,4.627,6.93,4.627
		c0.958,0,1.932-0.185,2.872-0.575l21.36-8.865c1.899-0.788,3.392-2.322,4.128-4.242c0.736-1.921,0.651-4.06-0.234-5.915
		l-30.427-63.748c-1.718-3.601-5.954-5.226-9.638-3.699l-0.322,0.133l-5.394-13.024c3.525-2.445,6.588-5.508,9.033-9.033
		l13.023,5.394l-0.133,0.32c-1.585,3.827,0.231,8.215,4.058,9.8c3.704,1.537,7.926-0.124,9.63-3.702
		c0.056-0.118,0.118-0.233,0.169-0.356l3.284-7.928l52.437,18.555l-5.664,13.701l-0.153,0.37c-1.583,3.828,0.238,8.214,4.066,9.796
		c0.937,0.388,1.907,0.571,2.862,0.571c2.945,0,5.739-1.746,6.934-4.637l8.835-21.372c0.786-1.9,0.756-4.04-0.081-5.919
		S359.055,160.722,357.117,160.037z M232.485,149.808c1.325-3.736-0.487-7.894-4.191-9.428c-3.702-1.538-7.92,0.122-9.627,3.695
		c-3.914-3.755-6.364-9.022-6.364-14.861c0-0.146,0.019-0.287,0.022-0.433c0.823,0.292,1.665,0.441,2.497,0.441
		c2.943,0,5.736-1.744,6.932-4.632c1.533-3.702-0.123-7.92-3.696-9.627c3.755-3.914,9.022-6.365,14.861-6.365
		c0.146,0,0.288,0.019,0.433,0.022c-1.325,3.736,0.487,7.894,4.191,9.428c0.938,0.39,1.911,0.573,2.867,0.573
		c2.816,0,5.478-1.609,6.752-4.276c3.918,3.755,6.372,9.025,6.372,14.868c0,0.146-0.019,0.288-0.022,0.434
		c-3.735-1.329-7.895,0.487-9.429,4.191c-1.533,3.702,0.123,7.92,3.696,9.627c-3.754,3.914-9.022,6.365-14.861,6.365
		C232.772,149.83,232.631,149.811,232.485,149.808z"/>
	<path style="fill:#4D3D36;" d="M258.138,273.155c-1.06-2.995-3.893-4.998-7.07-4.998c-0.001,0-0.506-12.796-0.506-12.796
		c-0.163-4.14-3.651-7.351-7.79-7.198c-4.139,0.163-7.362,3.651-7.198,7.79l0.482,12.204h-6.273l0.482-12.204
		c0.164-4.139-3.06-7.627-7.198-7.79c-4.149-0.165-7.626,3.06-7.79,7.198l-0.505,12.796c-3.179,0-6.011,2.003-7.071,4.998
		l-64.637,182.678c-1.382,3.905,0.664,8.19,4.568,9.572c3.905,1.384,8.19-0.664,9.572-4.568l30.55-86.341h22.82l-3.298,83.543
		c-0.164,4.139,3.06,7.627,7.198,7.79c0.101,0.004,0.201,0.006,0.301,0.006c4.005,0,7.33-3.166,7.489-7.204l3.321-84.135h14.668
		l3.321,84.135c0.159,4.038,3.483,7.204,7.489,7.204c0.1,0,0.201-0.002,0.301-0.006c4.139-0.163,7.362-3.651,7.198-7.79
		l-3.298-83.543h22.82l30.55,86.341c1.089,3.078,3.981,5,7.07,5c0.83,0,1.675-0.139,2.502-0.432c3.905-1.382,5.95-5.667,4.568-9.572
		L258.138,273.155z M193.061,359.496l20.378-57.593l-2.273,57.593H193.061z M226.177,359.496l3.013-76.339h7.457l3.013,76.339
		H226.177z M254.672,359.496l-2.273-57.593l20.378,57.593H254.672z"/>
</g>
<g>
</g>
<g>
</g>
<g>
</g>
<g>
</g>
<g>
</g>
<g>
</g>
<g>
</g>
<g>
</g>
<g>
</g>
<g>
</g>
<g>
</g>
<g>
</g>
<g>
</g>
<g>
</g>
<g>
</g>
</svg>
