<?xml version="1.0" encoding="iso-8859-1"?>
<!-- Generator: Adobe Illustrator 19.0.0, SVG Export Plug-In . SVG Version: 6.00 Build 0)  -->
<svg version="1.1" id="Capa_1" xmlns="http://www.w3.org/2000/svg" xmlns:xlink="http://www.w3.org/1999/xlink" x="0px" y="0px"
	 viewBox="0 0 472 472" style="enable-background:new 0 0 472 472;" xml:space="preserve">
<g>
	
		<rect x="244.422" y="208.472" transform="matrix(-0.7071 -0.7071 0.7071 -0.7071 295.219 546.6337)" style="fill:#FCDB5A;" width="32.797" height="7.407"/>
	<path style="fill:#FCDB5A;" d="M244.123,262.672c-2.929-2.93-2.929-7.678,0-10.607l15.068-15.068L236,213.805l-23.191,23.191
		l15.068,15.068c2.929,2.93,2.929,7.678,0,10.607l-50.1,50.1L172.436,457h56.063v-38.119c0-4.143,3.358-7.5,7.5-7.5
		s7.5,3.357,7.5,7.5V457h56.065l-5.342-144.229L244.123,262.672z"/>
	
		<rect x="232.295" y="183.65" transform="matrix(-0.7071 -0.7071 0.7071 -0.7071 270.3975 486.7087)" style="fill:#FCDB5A;" width="7.408" height="7.407"/>
	
		<rect x="194.78" y="208.47" transform="matrix(-0.7071 0.7071 -0.7071 -0.7071 510.5338 212.8792)" style="fill:#FCDB5A;" width="32.797" height="7.408"/>
	<path style="fill:#FFFFFF;" d="M280.405,169.4l9.765,9.766L421.092,48.244l-30.137-30.138L260.033,149.028l9.765,9.765
		L384.81,43.781c2.929-2.928,7.678-2.928,10.606,0c2.929,2.93,2.929,7.678,0,10.607L280.405,169.4z"/>
	<path style="fill:#FFFFFF;" d="M211.967,257.368l-9.765-9.765l-72.586,72.586c-1.464,1.464-3.384,2.196-5.303,2.196
		s-3.839-0.732-5.303-2.196c-2.929-2.93-2.929-7.678,0-10.607l72.585-72.585l-9.765-9.765L50.908,358.152l30.137,30.138
		L211.967,257.368z M108.403,341.402L87.19,362.615c-1.464,1.464-3.384,2.196-5.303,2.196c-1.919,0-3.839-0.732-5.303-2.196
		c-2.929-2.93-2.929-7.678,0-10.607l21.213-21.213c2.929-2.929,7.678-2.927,10.606,0
		C111.333,333.725,111.333,338.473,108.403,341.402z"/>
	<path style="fill:#4D3D36;" d="M97.797,330.795l-21.213,21.213c-2.929,2.93-2.929,7.678,0,10.607
		c1.464,1.464,3.384,2.196,5.303,2.196c1.919,0,3.839-0.732,5.303-2.196l21.213-21.213c2.929-2.93,2.929-7.678,0-10.607
		C105.475,327.868,100.726,327.866,97.797,330.795z"/>
	<path style="fill:#FFFFFF;" d="M290.17,227.23l-9.765,9.765l115.012,115.012c2.929,2.93,2.929,7.678,0,10.607
		c-1.464,1.464-3.384,2.196-5.303,2.196s-3.839-0.732-5.303-2.196L269.798,247.603l-9.765,9.765L390.955,388.29l30.137-30.138
		L290.17,227.23z"/>
	<path style="fill:#FFFFFF;" d="M87.19,43.781l115.012,115.012l9.765-9.765L81.045,18.106L50.908,48.244L181.83,179.166l9.765-9.765
		L76.583,54.389c-2.929-2.93-2.929-7.678,0-10.607C79.512,40.854,84.261,40.854,87.19,43.781z"/>
	<path style="fill:#4D3D36;" d="M295.473,211.32c-1.406-1.406-3.314-2.196-5.303-2.196c-1.619,0-3.18,0.531-4.465,1.484
		l-23.254-23.255l7.347-7.347l15.069,15.069c1.406,1.406,3.314,2.196,5.303,2.196s3.897-0.79,5.303-2.196L437.001,53.548
		c2.929-2.93,2.929-7.678,0-10.607L396.258,2.196C394.852,0.79,392.944,0,390.955,0s-3.897,0.79-5.303,2.196L244.123,143.725
		c-2.929,2.93-2.929,7.678,0,10.607l15.068,15.068l-7.347,7.347l-10.542-10.542c-1.406-1.406-3.314-2.196-5.303-2.196
		s-3.897,0.79-5.303,2.196l-10.541,10.541l-7.346-7.346l15.068-15.068c2.929-2.93,2.929-7.678,0-10.607L86.349,2.196
		C84.942,0.79,83.035,0,81.045,0s-3.897,0.79-5.303,2.196L34.999,42.94c-2.929,2.93-2.929,7.678,0,10.607l141.528,141.528
		c1.406,1.406,3.314,2.196,5.303,2.196s3.897-0.79,5.303-2.196l15.069-15.069l7.346,7.346l-23.254,23.255
		c-1.285-0.953-2.845-1.484-4.463-1.484c-1.989,0-3.897,0.79-5.303,2.196L34.999,352.849c-2.929,2.93-2.929,7.678,0,10.607
		L75.742,404.2c1.406,1.406,3.314,2.196,5.303,2.196s3.897-0.79,5.303-2.196l75.84-75.84L157.425,457h-22.772
		c-4.142,0-7.5,3.357-7.5,7.5s3.358,7.5,7.5,7.5h202.694c4.142,0,7.5-3.357,7.5-7.5s-3.358-7.5-7.5-7.5h-22.772l-4.765-128.642
		l75.842,75.842c1.406,1.406,3.314,2.196,5.303,2.196s3.897-0.79,5.303-2.196l40.744-40.744c2.929-2.93,2.929-7.678,0-10.607
		L295.473,211.32z M395.417,43.781c-2.928-2.928-7.677-2.928-10.606,0L269.798,158.793l-9.765-9.765L390.955,18.106l30.137,30.138
		L290.17,179.166l-9.765-9.766L395.417,54.389C398.346,51.459,398.346,46.711,395.417,43.781z M76.583,54.389l115.012,115.012
		l-9.765,9.765L50.908,48.244l30.137-30.138l130.922,130.922l-9.765,9.765L87.19,43.781c-2.929-2.928-7.678-2.928-10.606,0
		C73.654,46.711,73.654,51.459,76.583,54.389z M390.955,388.29L260.033,257.368l9.765-9.765L384.81,362.615
		c1.464,1.464,3.384,2.196,5.303,2.196s3.839-0.732,5.303-2.196c2.929-2.93,2.929-7.678,0-10.607L280.405,236.996l9.765-9.765
		l130.922,130.922L390.955,388.29z M243.499,457v-38.119c0-4.143-3.358-7.5-7.5-7.5s-7.5,3.357-7.5,7.5V457h-56.063l5.341-144.228
		l50.1-50.1c2.929-2.93,2.929-7.678,0-10.607l-15.068-15.068L236,213.805l23.191,23.191l-15.068,15.068
		c-2.929,2.93-2.929,7.678,0,10.607l50.099,50.099L299.564,457H243.499z M50.908,358.152L181.83,227.23l9.765,9.765l-72.585,72.585
		c-2.929,2.93-2.929,7.678,0,10.607c1.464,1.464,3.384,2.196,5.303,2.196s3.839-0.732,5.303-2.196l72.586-72.586l9.765,9.765
		L81.045,388.29L50.908,358.152z M269.798,226.389l-23.191-23.191l5.237-5.237l23.191,23.191L269.798,226.389z M236,192.591
		l-5.238-5.238l5.238-5.238l5.238,5.238L236,192.591z M225.393,203.198l-23.191,23.191l-5.238-5.238l23.191-23.191L225.393,203.198z
		"/>
</g>
<g>
</g>
<g>
</g>
<g>
</g>
<g>
</g>
<g>
</g>
<g>
</g>
<g>
</g>
<g>
</g>
<g>
</g>
<g>
</g>
<g>
</g>
<g>
</g>
<g>
</g>
<g>
</g>
<g>
</g>
</svg>
