<svg width="1000" height="500" xmlns="http://www.w3.org/2000/svg">

 <g>
  <title>background</title>
  <rect fill="none" id="canvas_background" height="502" width="1002" y="-1" x="-1"/>
 </g>
 <g>
  <title>Layer 1</title>
  <g id="svg_1">
   <path id="svg_2" fill="#BCC987" d="m822.93,108.663c-7.791,-25.473 -25.164,-48.496 -50.43,-66.364l0,112.209l9.551,-8.683c3.066,-2.784 7.81,-2.56 10.595,0.505c2.786,3.064 2.56,7.809 -0.505,10.595l-19.641,17.855l0,62.135c35.178,-24.878 55.082,-59.742 55.082,-97.308c0,-4.728 -0.327,-9.411 -0.948,-14.04l-12.295,11.177c-1.437,1.306 -3.243,1.95 -5.043,1.95c-2.04,0 -4.071,-0.827 -5.551,-2.455c-2.787,-3.064 -2.561,-7.808 0.504,-10.595l18.681,-16.981z"/>
   <path id="svg_3" fill="#D4ED85" d="m757.5,236.916l0,-62.136l-54.133,-49.211c-0.621,4.628 -0.948,9.311 -0.948,14.039c0,37.566 19.903,72.43 55.081,97.308z"/>
   <path id="svg_4" fill="#D4ED85" d="m757.5,154.509l0,-112.21c-25.266,17.868 -42.639,40.891 -50.43,66.364l50.43,45.846z"/>
   <path id="svg_5" fill="#87635C" d="m892.421,429.923c-10.956,0 -21.621,2.066 -31.7,6.143c-3.246,1.313 -6.97,0.204 -8.97,-2.672c-19.761,-28.425 -52.192,-45.394 -86.751,-45.394s-66.989,16.97 -86.751,45.395c-2,2.876 -5.722,3.985 -8.97,2.672c-10.08,-4.076 -20.745,-6.143 -31.7,-6.143c-34.751,0 -66.046,21.421 -78.732,53.575l412.306,0c-12.686,-32.154 -43.981,-53.576 -78.732,-53.576zm-262.666,31.031c-4.411,0 -8,-3.589 -8,-8s3.589,-8 8,-8s8,3.589 8,8s-3.589,8 -8,8zm178,-25c-4.411,0 -8,-3.589 -8,-8s3.589,-8 8,-8s8,3.589 8,8s-3.589,8 -8,8zm26,25c-4.411,0 -8,-3.589 -8,-8s3.589,-8 8,-8s8,3.589 8,8s-3.589,8 -8,8z"/>
   <path id="svg_6" fill="#4D3D36" d="m986.238,480.971c-14.141,-39.505 -51.842,-66.048 -93.816,-66.048c-10.911,0 -21.584,1.744 -31.805,5.191c-21.75,-28.266 -54.93,-45.493 -90.538,-46.996c-10.017,-25.763 -4.495,-39.217 1.858,-54.657c6.571,-15.969 13.961,-33.944 2.383,-64.71c19.821,-12.759 36.334,-28.889 47.981,-46.959c13.269,-20.588 20.283,-43.82 20.283,-67.186c0,-9.951 -1.284,-19.876 -3.77,-29.584c-0.078,-0.535 -0.22,-1.063 -0.414,-1.575c-3.386,-12.531 -8.787,-24.681 -16.099,-36.027c-12.707,-19.716 -31.195,-37.134 -53.467,-50.37c-0.027,-0.016 -0.057,-0.027 -0.084,-0.042c-0.528,-0.306 -1.095,-0.548 -1.694,-0.718c-0.073,-0.021 -0.146,-0.038 -0.219,-0.056c-0.225,-0.057 -0.454,-0.103 -0.686,-0.139c-0.082,-0.013 -0.164,-0.028 -0.246,-0.038c-0.286,-0.034 -0.576,-0.057 -0.872,-0.058c-0.021,0 -0.041,0 -0.062,0c-0.295,0.001 -0.585,0.023 -0.872,0.058c-0.083,0.01 -0.164,0.025 -0.246,0.038c-0.233,0.036 -0.461,0.082 -0.687,0.139c-0.073,0.018 -0.146,0.036 -0.219,0.056c-0.599,0.17 -1.166,0.413 -1.694,0.718c-0.027,0.016 -0.057,0.026 -0.084,0.042c-22.271,13.236 -40.76,30.654 -53.467,50.37c-7.304,11.333 -12.7,23.469 -16.087,35.985c-0.207,0.536 -0.355,1.088 -0.434,1.648c-2.48,9.699 -3.762,19.613 -3.762,29.553c0,23.365 7.014,46.598 20.283,67.186c12.295,19.076 30.013,35.99 51.323,49.057c11.235,27.241 5.576,41.021 -0.96,56.904c-6.282,15.266 -13.306,32.371 -3.795,60.728c-33.449,2.993 -64.29,19.868 -84.885,46.633c-10.221,-3.447 -20.894,-5.191 -31.805,-5.191c-41.974,0 -79.676,26.543 -93.816,66.048c-1.396,3.899 0.634,8.192 4.534,9.589c3.896,1.395 8.192,-0.634 9.589,-4.534c0.305,-0.851 0.631,-1.69 0.961,-2.527c12.686,-32.154 43.981,-53.575 78.732,-53.575c10.956,0 21.621,2.066 31.7,6.143c3.248,1.313 6.97,0.204 8.97,-2.672c19.761,-28.426 52.192,-45.395 86.75,-45.395s66.989,16.97 86.751,45.395c2,2.876 5.724,3.985 8.97,2.672c10.08,-4.076 20.745,-6.143 31.7,-6.143c34.751,0 66.046,21.421 78.732,53.575c0.33,0.837 0.657,1.676 0.961,2.527c1.097,3.065 3.983,4.975 7.062,4.975c0.839,0 1.692,-0.142 2.527,-0.44c3.9,-1.397 5.93,-5.69 4.535,-9.59zm-182.493,-344.73c1.48,1.628 3.512,2.455 5.551,2.455c1.8,0 3.606,-0.645 5.043,-1.95l12.295,-11.177c0.621,4.628 0.948,9.312 0.948,14.04c0,37.566 -19.904,72.43 -55.082,97.308l0,-62.137l19.641,-17.855c3.065,-2.786 3.291,-7.53 0.505,-10.595c-2.785,-3.064 -7.528,-3.289 -10.595,-0.505l-9.551,8.683l0,-112.209c25.266,17.868 42.639,40.891 50.43,66.364l-18.681,16.983c-3.065,2.787 -3.291,7.53 -0.504,10.595zm-46.245,-93.942l0,112.209l-50.43,-45.845c7.791,-25.473 25.164,-48.496 50.43,-66.364zm-54.133,83.27l54.133,49.211l0,62.135c-35.178,-24.878 -55.082,-59.742 -55.082,-97.308c0.001,-4.727 0.328,-9.41 0.949,-14.038z"/>
   <path id="svg_7" fill="#4D3D36" d="m629.755,444.954c-4.411,0 -8,3.589 -8,8s3.589,8 8,8s8,-3.589 8,-8s-3.589,-8 -8,-8z"/>
   <path id="svg_8" fill="#4D3D36" d="m833.755,444.954c-4.411,0 -8,3.589 -8,8s3.589,8 8,8s8,-3.589 8,-8s-3.589,-8 -8,-8z"/>
   <path id="svg_9" fill="#4D3D36" d="m807.755,419.954c-4.411,0 -8,3.589 -8,8s3.589,8 8,8s8,-3.589 8,-8s-3.589,-8 -8,-8z"/>
  </g>
  <g id="svg_10"/>
  <g id="svg_11"/>
  <g id="svg_12"/>
  <g id="svg_13"/>
  <g id="svg_14"/>
  <g id="svg_15"/>
  <g id="svg_16"/>
  <g id="svg_17"/>
  <g id="svg_18"/>
  <g id="svg_19"/>
  <g id="svg_20"/>
  <g id="svg_21"/>
  <g id="svg_22"/>
  <g id="svg_23"/>
  <g id="svg_24"/>
  <g stroke="null" id="svg_55">
   <g stroke="null" transform="matrix(1.1510519032637632,0,0,1.0111204756859193,-2197.963609550175,-1896.6681918159584) " id="svg_29">
    <path stroke="null" id="svg_30" fill="#5D734F" d="m1982.252835,2351.051061l204.66,0c-29.359,-22.191 -65.345,-34.327 -102.33,-34.327s-72.971,12.136 -102.33,34.327z"/>
    <path stroke="null" id="svg_31" fill="#D4ED85" d="m1958.339835,2122.907061c1.049,0.65 2.116,1.288 3.183,1.927c5.318,3.18 10.818,6.468 14.788,11.439c3.994,5.002 5.992,11.115 7.924,17.028c1.901,5.818 3.697,11.314 6.878,13.854c3.149,2.515 8.887,3.048 14.962,3.612c5.881,0.547 11.953,1.111 17.5,3.545c14.621,-18.78 36.933,-29.797 61.008,-29.797c24.077,0 46.387,11.015 61.008,29.797c5.547,-2.434 11.619,-2.998 17.501,-3.544c6.075,-0.565 11.813,-1.099 14.961,-3.613c3.181,-2.54 4.977,-8.035 6.878,-13.854c1.932,-5.912 3.93,-12.025 7.923,-17.027c3.969,-4.971 9.467,-8.258 14.784,-11.437c5.274,-3.153 10.256,-6.132 12.044,-9.838c1.727,-3.58 0.971,-9.267 0.171,-15.287c-0.825,-6.204 -1.678,-12.62 -0.242,-18.937c1.386,-6.097 4.871,-11.384 8.241,-16.496c3.417,-5.183 6.644,-10.078 6.644,-14.338c0,-4.259 -3.227,-9.154 -6.644,-14.338c-3.37,-5.112 -6.855,-10.399 -8.241,-16.496c-1.436,-6.315 -0.583,-12.731 0.242,-18.936c0.8,-6.02 1.556,-11.707 -0.171,-15.287c-1.788,-3.706 -6.77,-6.685 -12.044,-9.838c-5.317,-3.179 -10.815,-6.466 -14.784,-11.437c-3.994,-5.001 -5.992,-11.115 -7.923,-17.027c-1.901,-5.818 -3.697,-11.314 -6.878,-13.854c-3.15,-2.516 -8.888,-3.049 -14.962,-3.614c-6.209,-0.577 -12.63,-1.174 -18.423,-3.969c-5.679,-2.739 -10.081,-7.34 -14.338,-11.788c-4.271,-4.462 -8.305,-8.678 -12.378,-9.604c-3.8,-0.863 -9.131,1.125 -14.776,3.229c-5.914,2.205 -12.029,4.485 -18.593,4.485s-12.679,-2.28 -18.593,-4.485c-5.646,-2.104 -10.98,-4.091 -14.777,-3.229c-4.072,0.926 -8.106,5.141 -12.376,9.604c-4.257,4.448 -8.659,9.048 -14.338,11.788c-5.794,2.795 -12.216,3.393 -18.426,3.97c-1.205,0.112 -2.409,0.225 -3.602,0.354c-3.971,0.436 -7.556,-2.333 -8.199,-6.233c-2.92,0.738 -5.6,1.843 -7.839,3.631c-2.282,1.822 -3.973,4.246 -5.355,6.984c3.666,1.485 5.576,5.589 4.277,9.375c-0.379,1.105 -0.745,2.225 -1.111,3.343c-1.935,5.917 -3.936,12.036 -7.932,17.042c-3.969,4.97 -9.467,8.257 -14.784,11.436c-5.275,3.154 -10.257,6.133 -12.045,9.838c-1.728,3.581 -0.971,9.268 -0.171,15.288c0.825,6.204 1.677,12.62 0.242,18.936c-1.386,6.097 -4.871,11.384 -8.241,16.496c-3.417,5.184 -6.644,10.079 -6.644,14.338c0,4.26 3.227,9.155 6.644,14.339c3.37,5.112 6.854,10.399 8.24,16.495c1.436,6.316 0.583,12.733 -0.241,18.938c-0.151,1.135 -0.302,2.268 -0.436,3.395c-0.454,3.812 -3.692,6.614 -7.438,6.614c-0.162,0 -0.326,-0.019 -0.49,-0.029c0.052,3.058 0.521,5.957 1.779,8.564c1.257,2.605 3.206,4.78 5.527,6.719c2.267,-3.235 6.687,-4.179 10.086,-2.071zm199.472,-100.868c15.386,0 27.904,12.518 27.904,27.903c0,15.387 -12.518,27.904 -27.904,27.904c-15.386,0 -27.903,-12.518 -27.903,-27.904c0,-15.385 12.518,-27.903 27.903,-27.903zm-73.229,-66.255c15.386,0 27.904,12.518 27.904,27.903s-12.518,27.903 -27.904,27.903s-27.904,-12.518 -27.904,-27.903s12.518,-27.903 27.904,-27.903zm-73.23,66.255c15.386,0 27.903,12.518 27.903,27.903c0,15.387 -12.518,27.904 -27.903,27.904c-15.386,0 -27.904,-12.518 -27.904,-27.904c0.001,-15.385 12.518,-27.903 27.904,-27.903z"/>
    <path stroke="null" id="svg_32" fill="#D35B38" d="m2157.811835,2062.847061c7.115,0 12.904,-5.789 12.904,-12.904s-5.789,-12.903 -12.904,-12.903c-7.115,0 -12.903,5.788 -12.903,12.903s5.789,12.904 12.903,12.904z"/>
    <path stroke="null" id="svg_33" fill="#4D3D36" d="m2157.811835,2077.847061c15.386,0 27.904,-12.518 27.904,-27.904c0,-15.386 -12.518,-27.903 -27.904,-27.903c-15.386,0 -27.903,12.518 -27.903,27.903c0,15.386 12.518,27.904 27.903,27.904zm0,-40.808c7.115,0 12.904,5.788 12.904,12.903s-5.789,12.904 -12.904,12.904c-7.115,0 -12.903,-5.789 -12.903,-12.904s5.789,-12.903 12.903,-12.903z"/>
    <path stroke="null" id="svg_34" fill="#D35B38" d="m2084.582835,1996.591061c7.115,0 12.904,-5.788 12.904,-12.903s-5.789,-12.903 -12.904,-12.903s-12.904,5.788 -12.904,12.903s5.789,12.903 12.904,12.903z"/>
    <path stroke="null" id="svg_35" fill="#4D3D36" d="m2084.582835,2011.591061c15.386,0 27.904,-12.518 27.904,-27.903s-12.518,-27.903 -27.904,-27.903s-27.904,12.518 -27.904,27.903s12.518,27.903 27.904,27.903zm0,-40.807c7.115,0 12.904,5.788 12.904,12.903s-5.789,12.903 -12.904,12.903s-12.904,-5.788 -12.904,-12.903s5.789,-12.903 12.904,-12.903z"/>
    <path stroke="null" id="svg_36" fill="#D35B38" d="m2011.352835,2062.847061c7.115,0 12.903,-5.789 12.903,-12.904s-5.789,-12.903 -12.903,-12.903c-7.115,0 -12.904,5.788 -12.904,12.903s5.789,12.904 12.904,12.904z"/>
    <path stroke="null" id="svg_37" fill="#4D3D36" d="m2011.352835,2077.847061c15.386,0 27.903,-12.518 27.903,-27.904c0,-15.386 -12.518,-27.903 -27.903,-27.903c-15.386,0 -27.904,12.518 -27.904,27.903c0.001,15.386 12.518,27.904 27.904,27.904zm0,-40.808c7.115,0 12.903,5.788 12.903,12.903s-5.789,12.904 -12.903,12.904c-7.115,0 -12.904,-5.789 -12.904,-12.904s5.789,-12.903 12.904,-12.903z"/>
    <path stroke="null" id="svg_38" fill="#4D3D36" d="m2240.376835,2072.536061c4.274,-6.485 9.12,-13.835 9.12,-22.594c0,-8.758 -4.845,-16.108 -9.12,-22.593c-2.754,-4.179 -5.356,-8.125 -6.138,-11.565c-0.838,-3.688 -0.196,-8.519 0.484,-13.634c1.007,-7.574 2.148,-16.158 -1.53,-23.782c-3.741,-7.756 -11.241,-12.239 -17.857,-16.195c-4.363,-2.608 -8.484,-5.072 -10.759,-7.921c-2.3,-2.881 -3.8,-7.469 -5.387,-12.327c-2.386,-7.302 -5.09,-15.578 -11.776,-20.916c-6.654,-5.314 -15.303,-6.118 -22.934,-6.828c-5.11,-0.475 -9.936,-0.923 -13.293,-2.543c-3.236,-1.562 -6.531,-5.004 -10.019,-8.649c-5.354,-5.594 -11.422,-11.934 -19.891,-13.86c-8.166,-1.854 -16.229,1.15 -23.341,3.802c-4.883,1.82 -9.495,3.54 -13.353,3.54s-8.47,-1.72 -13.353,-3.54c-7.113,-2.651 -15.177,-5.655 -23.342,-3.802c-8.468,1.926 -14.536,8.266 -19.889,13.859c-3.488,3.646 -6.783,7.089 -10.019,8.649c-3.358,1.62 -8.187,2.069 -13.298,2.545c-1.281,0.119 -2.562,0.238 -3.83,0.376c-4.118,0.447 -7.094,4.147 -6.647,8.266c0.015,0.14 0.043,0.276 0.066,0.413c0.643,3.9 4.228,6.669 8.199,6.233c1.193,-0.129 2.397,-0.241 3.602,-0.354c6.21,-0.577 12.631,-1.175 18.426,-3.97c5.679,-2.74 10.081,-7.34 14.338,-11.788c4.271,-4.463 8.304,-8.678 12.376,-9.604c3.797,-0.861 9.131,1.125 14.777,3.229c5.914,2.205 12.029,4.485 18.593,4.485s12.679,-2.28 18.593,-4.485c5.645,-2.104 10.977,-4.093 14.776,-3.229c4.074,0.926 8.107,5.142 12.378,9.604c4.257,4.448 8.659,9.049 14.338,11.788c5.793,2.795 12.214,3.392 18.423,3.969c6.075,0.565 11.813,1.099 14.962,3.614c3.181,2.539 4.977,8.035 6.878,13.854c1.932,5.912 3.93,12.026 7.923,17.027c3.969,4.971 9.467,8.258 14.784,11.437c5.274,3.153 10.256,6.132 12.044,9.838c1.727,3.58 0.971,9.268 0.171,15.287c-0.825,6.204 -1.678,12.62 -0.242,18.936c1.386,6.097 4.871,11.384 8.241,16.496c3.417,5.184 6.644,10.079 6.644,14.338c0,4.26 -3.227,9.155 -6.644,14.338c-3.37,5.112 -6.855,10.399 -8.241,16.496c-1.436,6.316 -0.583,12.732 0.242,18.937c0.8,6.021 1.556,11.707 -0.171,15.287c-1.788,3.706 -6.77,6.685 -12.044,9.838c-5.317,3.179 -10.815,6.466 -14.784,11.437c-3.994,5.002 -5.992,11.115 -7.923,17.027c-1.902,5.819 -3.698,11.314 -6.878,13.854c-3.149,2.515 -8.887,3.048 -14.961,3.613c-5.882,0.546 -11.954,1.11 -17.501,3.544c-14.621,-18.782 -36.931,-29.797 -61.008,-29.797c-24.075,0 -46.387,11.017 -61.008,29.797c-5.548,-2.434 -11.619,-2.998 -17.5,-3.545c-6.075,-0.564 -11.813,-1.098 -14.962,-3.612c-3.181,-2.54 -4.977,-8.036 -6.878,-13.854c-1.932,-5.913 -3.93,-12.026 -7.924,-17.028c-3.97,-4.972 -9.469,-8.26 -14.788,-11.439c-1.067,-0.639 -2.134,-1.276 -3.183,-1.927c-3.399,-2.109 -7.818,-1.165 -10.085,2.07c-0.081,0.116 -0.167,0.228 -0.242,0.35c-2.183,3.52 -1.1,8.144 2.42,10.326c1.118,0.693 2.256,1.374 3.393,2.055c4.365,2.609 8.488,5.074 10.764,7.925c2.3,2.881 3.8,7.47 5.387,12.328c2.386,7.302 5.09,15.577 11.776,20.917c6.654,5.313 15.303,6.117 22.934,6.826c5.11,0.476 9.936,0.924 13.291,2.542c0.954,0.461 1.958,1.108 3.068,1.979c1.664,1.306 3.802,1.849 5.887,1.493c2.085,-0.354 3.923,-1.572 5.063,-3.354c1.888,-2.954 3.997,-5.709 6.292,-8.259l38.797,35.411l0,86.366c-40.931,1.668 -80.339,16.94 -111.694,43.44c-3.164,2.674 -3.561,7.406 -0.887,10.569c2.674,3.164 7.405,3.56 10.569,0.888c2.344,-1.981 4.743,-3.885 7.181,-5.729c29.359,-22.191 65.345,-34.327 102.33,-34.327s72.971,12.136 102.33,34.327c2.439,1.843 4.837,3.748 7.181,5.729c1.408,1.19 3.127,1.771 4.837,1.771c2.131,0 4.249,-0.903 5.732,-2.659c2.674,-3.163 2.277,-7.896 -0.887,-10.569c-31.354,-26.5 -70.763,-41.772 -111.694,-43.44l0,-86.366l38.797,-35.411c2.294,2.549 4.403,5.304 6.291,8.259c1.139,1.782 2.978,3 5.063,3.354c0.418,0.071 0.839,0.106 1.257,0.106c1.667,0 3.3,-0.556 4.63,-1.6c1.11,-0.871 2.113,-1.518 3.066,-1.978c3.357,-1.62 8.184,-2.068 13.293,-2.543c7.63,-0.71 16.278,-1.514 22.933,-6.827c6.686,-5.339 9.39,-13.615 11.776,-20.917c1.587,-4.857 3.087,-9.446 5.387,-12.327c2.275,-2.849 6.396,-5.313 10.759,-7.921c6.616,-3.956 14.116,-8.439 17.857,-16.195c3.678,-7.624 2.537,-16.208 1.53,-23.781c-0.68,-5.115 -1.322,-9.947 -0.484,-13.636c0.784,-3.44 3.386,-7.386 6.14,-11.564zm-190.713,97.647c8.122,-5.499 17.491,-9.026 27.419,-10.214l0,35.24l-27.419,-25.026zm42.419,-10.215c9.928,1.189 19.297,4.716 27.419,10.214l-27.419,25.026l0,-35.24z"/>
    <path stroke="null" id="svg_39" fill="#4D3D36" d="m1948.875835,2103.110061c0.134,-1.127 0.285,-2.26 0.436,-3.395c0.825,-6.205 1.677,-12.622 0.241,-18.938c-1.386,-6.096 -4.87,-11.383 -8.24,-16.495c-3.417,-5.184 -6.644,-10.079 -6.644,-14.339c0,-4.259 3.227,-9.154 6.644,-14.338c3.37,-5.112 6.855,-10.399 8.241,-16.496c1.436,-6.315 0.583,-12.731 -0.242,-18.936c-0.8,-6.021 -1.557,-11.707 0.171,-15.288c1.788,-3.705 6.77,-6.684 12.045,-9.838c5.316,-3.179 10.814,-6.466 14.784,-11.436c3.997,-5.006 5.997,-11.125 7.932,-17.042c0.366,-1.118 0.732,-2.237 1.111,-3.343c1.3,-3.786 -0.611,-7.89 -4.277,-9.375c-0.127,-0.052 -0.252,-0.108 -0.383,-0.153c-3.914,-1.346 -8.184,0.741 -9.528,4.659c-0.403,1.174 -0.792,2.362 -1.18,3.55c-1.591,4.864 -3.093,9.458 -5.397,12.345c-2.275,2.848 -6.396,5.313 -10.759,7.921c-6.617,3.956 -14.116,8.439 -17.857,16.194c-3.678,7.624 -2.537,16.209 -1.53,23.782c0.68,5.115 1.322,9.947 0.484,13.635c-0.782,3.44 -3.383,7.387 -6.138,11.565c-4.274,6.484 -9.12,13.835 -9.12,22.593c0,8.759 4.845,16.109 9.12,22.595c2.754,4.178 5.355,8.124 6.137,11.564c0.839,3.688 0.196,8.521 -0.484,13.637c-0.16,1.203 -0.319,2.404 -0.461,3.598c-0.49,4.113 2.448,7.845 6.561,8.334c0.136,0.016 0.27,0.016 0.406,0.024c0.163,0.011 0.328,0.029 0.49,0.029c3.746,0.001 6.984,-2.802 7.437,-6.613z"/>
   </g>
   <g stroke="null" transform="matrix(1.1510519032637632,0,0,1.0111204756859193,-2197.963609550175,-1896.6681918159584) " id="svg_40"/>
   <g stroke="null" transform="matrix(1.1510519032637632,0,0,1.0111204756859193,-2197.963609550175,-1896.6681918159584) " id="svg_41"/>
   <g stroke="null" transform="matrix(1.1510519032637632,0,0,1.0111204756859193,-2197.963609550175,-1896.6681918159584) " id="svg_42"/>
   <g stroke="null" transform="matrix(1.1510519032637632,0,0,1.0111204756859193,-2197.963609550175,-1896.6681918159584) " id="svg_43"/>
   <g stroke="null" transform="matrix(1.1510519032637632,0,0,1.0111204756859193,-2197.963609550175,-1896.6681918159584) " id="svg_44"/>
   <g stroke="null" transform="matrix(1.1510519032637632,0,0,1.0111204756859193,-2197.963609550175,-1896.6681918159584) " id="svg_45"/>
   <g stroke="null" transform="matrix(1.1510519032637632,0,0,1.0111204756859193,-2197.963609550175,-1896.6681918159584) " id="svg_46"/>
   <g stroke="null" transform="matrix(1.1510519032637632,0,0,1.0111204756859193,-2197.963609550175,-1896.6681918159584) " id="svg_47"/>
   <g stroke="null" transform="matrix(1.1510519032637632,0,0,1.0111204756859193,-2197.963609550175,-1896.6681918159584) " id="svg_48"/>
   <g stroke="null" transform="matrix(1.1510519032637632,0,0,1.0111204756859193,-2197.963609550175,-1896.6681918159584) " id="svg_49"/>
   <g stroke="null" transform="matrix(1.1510519032637632,0,0,1.0111204756859193,-2197.963609550175,-1896.6681918159584) " id="svg_50"/>
   <g stroke="null" transform="matrix(1.1510519032637632,0,0,1.0111204756859193,-2197.963609550175,-1896.6681918159584) " id="svg_51"/>
   <g stroke="null" transform="matrix(1.1510519032637632,0,0,1.0111204756859193,-2197.963609550175,-1896.6681918159584) " id="svg_52"/>
   <g stroke="null" transform="matrix(1.1510519032637632,0,0,1.0111204756859193,-2197.963609550175,-1896.6681918159584) " id="svg_53"/>
   <g stroke="null" transform="matrix(1.1510519032637632,0,0,1.0111204756859193,-2197.963609550175,-1896.6681918159584) " id="svg_54"/>
  </g>
 </g>
</svg>