<?xml version="1.0" encoding="iso-8859-1"?>
<!-- Generator: Adobe Illustrator 19.0.0, SVG Export Plug-In . SVG Version: 6.00 Build 0)  -->
<svg version="1.1" id="Capa_1" xmlns="http://www.w3.org/2000/svg" xmlns:xlink="http://www.w3.org/1999/xlink" x="0px" y="0px"
	 viewBox="0 0 470 470" style="enable-background:new 0 0 470 470;" xml:space="preserve">
<g>
	<path style="fill:#D4ED85;" d="M404.533,165.736c-4.143,0-7.5-3.357-7.5-7.5s3.357-7.5,7.5-7.5h35.273l-119.319-88.54h-62.794
		l121.31,90.018c0.038,0.028,0.071,0.062,0.109,0.091c0.15,0.116,0.294,0.237,0.434,0.364c0.066,0.06,0.134,0.118,0.198,0.18
		c0.155,0.15,0.302,0.308,0.444,0.47c0.035,0.041,0.074,0.078,0.108,0.119c0.174,0.208,0.335,0.427,0.486,0.653
		c0.028,0.043,0.052,0.088,0.08,0.131c0.118,0.186,0.23,0.377,0.332,0.574c0.034,0.067,0.065,0.135,0.098,0.202
		c0.086,0.18,0.166,0.363,0.238,0.55c0.029,0.075,0.056,0.15,0.083,0.226c0.065,0.186,0.121,0.375,0.171,0.567
		c0.02,0.078,0.042,0.155,0.06,0.234c0.045,0.2,0.079,0.403,0.108,0.608c0.01,0.072,0.025,0.143,0.033,0.216
		c0.031,0.275,0.049,0.553,0.049,0.836v197.067c0,4.143-3.357,7.5-7.5,7.5s-7.5-3.357-7.5-7.5V165.736h-50.466
		c-4.143,0-7.5-3.357-7.5-7.5s3.357-7.5,7.5-7.5h35.272l-119.318-88.54h-62.795l121.311,90.017c1.906,1.415,3.03,3.649,3.03,6.023
		v249.567h72.966v-22.5c0-4.143,3.357-7.5,7.5-7.5s7.5,3.357,7.5,7.5v22.5H455V165.736H404.533z"/>
	<path style="fill:#4D3D36;" d="M469.951,157.4c-0.008-0.073-0.023-0.143-0.033-0.216c-0.029-0.205-0.063-0.408-0.108-0.608
		c-0.018-0.079-0.04-0.156-0.06-0.234c-0.05-0.192-0.106-0.381-0.171-0.567c-0.027-0.076-0.054-0.151-0.083-0.227
		c-0.072-0.187-0.151-0.369-0.237-0.549c-0.033-0.068-0.064-0.137-0.099-0.204c-0.101-0.195-0.211-0.384-0.328-0.569
		c-0.029-0.045-0.054-0.093-0.083-0.137c-0.15-0.225-0.311-0.443-0.484-0.65c-0.039-0.046-0.082-0.089-0.122-0.134
		c-0.137-0.157-0.278-0.309-0.428-0.453c-0.069-0.066-0.141-0.129-0.212-0.193c-0.134-0.12-0.271-0.236-0.414-0.347
		c-0.041-0.032-0.077-0.069-0.119-0.1L327.436,48.674c-1.293-0.96-2.86-1.478-4.47-1.478H147.04
		c-0.376,0.002-0.719,0.034-1.058,0.082c-0.075,0.011-0.15,0.021-0.225,0.034c-0.349,0.06-0.692,0.14-1.023,0.246
		c-0.03,0.01-0.058,0.022-0.087,0.032c-0.332,0.111-0.652,0.247-0.961,0.401c-0.04,0.02-0.081,0.037-0.121,0.058
		c-0.323,0.169-0.63,0.363-0.923,0.575c-0.025,0.018-0.052,0.03-0.077,0.048L3.031,152.213C1.124,153.628,0,155.862,0,158.236
		v257.067c0,4.143,3.358,7.5,7.5,7.5h455c4.143,0,7.5-3.357,7.5-7.5V158.236C470,157.953,469.981,157.675,469.951,157.4z
		 M102.966,407.804v-70.689h88.135v70.689H102.966z M15,407.804V165.736h72.966v70.689h-2.5c-4.142,0-7.5,3.357-7.5,7.5
		s3.358,7.5,7.5,7.5h2.5v70.688h-2.5c-4.142,0-7.5,3.357-7.5,7.5s3.358,7.5,7.5,7.5h2.5v70.689H15z M147.034,64.035l116.84,86.701
		H30.194L147.034,64.035z M191.101,322.114h-88.135v-70.688h88.135V322.114z M191.101,236.426h-88.135v-70.689h88.135V236.426z
		 M206.101,165.736h72.966v242.067h-72.966V165.736z M382.033,407.804v-22.5c0-4.143-3.357-7.5-7.5-7.5s-7.5,3.357-7.5,7.5v22.5
		h-72.966V158.236c0-2.374-1.124-4.608-3.03-6.023L169.726,62.196h62.795l119.318,88.54h-35.272c-4.143,0-7.5,3.357-7.5,7.5
		s3.357,7.5,7.5,7.5h50.466v189.567c0,4.143,3.357,7.5,7.5,7.5s7.5-3.357,7.5-7.5V158.236c0-0.283-0.019-0.561-0.049-0.836
		c-0.008-0.073-0.023-0.143-0.033-0.216c-0.029-0.205-0.063-0.408-0.108-0.608c-0.018-0.079-0.04-0.156-0.06-0.234
		c-0.05-0.192-0.106-0.382-0.171-0.567c-0.026-0.076-0.054-0.151-0.083-0.226c-0.072-0.187-0.152-0.37-0.238-0.55
		c-0.032-0.068-0.063-0.136-0.098-0.202c-0.102-0.197-0.213-0.388-0.332-0.574c-0.027-0.043-0.051-0.089-0.08-0.131
		c-0.151-0.227-0.312-0.445-0.486-0.653c-0.034-0.041-0.073-0.079-0.108-0.119c-0.142-0.163-0.289-0.32-0.444-0.47
		c-0.064-0.062-0.132-0.12-0.198-0.18c-0.141-0.127-0.285-0.248-0.434-0.364c-0.038-0.029-0.07-0.063-0.109-0.091l-121.31-90.018
		h62.794l119.319,88.54h-35.273c-4.143,0-7.5,3.357-7.5,7.5s3.357,7.5,7.5,7.5H455v242.067H382.033z"/>
	<path style="fill:#FFFFFF;" d="M85.466,337.114c-4.142,0-7.5-3.357-7.5-7.5s3.358-7.5,7.5-7.5h2.5v-70.688h-2.5
		c-4.142,0-7.5-3.357-7.5-7.5s3.358-7.5,7.5-7.5h2.5v-70.689H15v242.067h72.966v-70.689H85.466z"/>
	<polygon style="fill:#FFFFFF;" points="263.874,150.736 147.034,64.035 30.194,150.736 	"/>
	<rect x="102.966" y="165.736" style="fill:#FFFFFF;" width="88.135" height="70.689"/>
	<rect x="102.966" y="337.114" style="fill:#FFFFFF;" width="88.135" height="70.689"/>
	<path style="fill:#FFFFFF;" d="M102.966,322.114h88.135v-70.688h-88.135V322.114z M168.601,268.463c4.142,0,7.5,3.357,7.5,7.5
		v21.614c0,4.143-3.358,7.5-7.5,7.5s-7.5-3.357-7.5-7.5v-21.614C161.101,271.82,164.459,268.463,168.601,268.463z"/>
	<rect x="206.101" y="165.736" style="fill:#FFFFFF;" width="72.966" height="242.067"/>
	<path style="fill:#4D3D36;" d="M168.601,305.077c4.142,0,7.5-3.357,7.5-7.5v-21.614c0-4.143-3.358-7.5-7.5-7.5s-7.5,3.357-7.5,7.5
		v21.614C161.101,301.72,164.459,305.077,168.601,305.077z"/>
</g>
<g>
</g>
<g>
</g>
<g>
</g>
<g>
</g>
<g>
</g>
<g>
</g>
<g>
</g>
<g>
</g>
<g>
</g>
<g>
</g>
<g>
</g>
<g>
</g>
<g>
</g>
<g>
</g>
<g>
</g>
</svg>
