<?xml version="1.0" encoding="iso-8859-1"?>
<!-- Generator: Adobe Illustrator 19.0.0, SVG Export Plug-In . SVG Version: 6.00 Build 0)  -->
<svg version="1.1" id="Capa_1" xmlns="http://www.w3.org/2000/svg" xmlns:xlink="http://www.w3.org/1999/xlink" x="0px" y="0px"
	 viewBox="0 0 470 470" style="enable-background:new 0 0 470 470;" xml:space="preserve">
<g>
	<path style="fill:#5D734F;" d="M19.791,237.975h89.591c4.14,0,7.497,3.355,7.5,7.495h15c0.003-4.14,3.359-7.495,7.5-7.495h36.5
		c5.771,0,10.466-4.695,10.466-10.467v-61.087c0-14.042,11.424-25.467,25.467-25.467h22.199V25.553L19.791,25.828V237.975z"/>
	<path style="fill:#5D734F;" d="M87.282,351.464v-23.343c0-21.622-17.591-39.213-39.213-39.213H19.791v85.056H94.78v-15
		C90.639,358.963,87.282,355.606,87.282,351.464z"/>
	<path style="fill:#BCC987;" d="M116.882,245.475c0,4.143-3.358,7.5-7.5,7.5H19.791v20.934h28.278
		c29.894,0,54.213,24.319,54.213,54.213v23.343c0,4.143-3.358,7.5-7.5,7.5c-0.002,0-0.002,15-0.002,15h44.602
		c0.801,0,1.598,0.129,2.358,0.381l99.56,32.98H445.22c-2.714-50.582-33.245-83.008-86.665-91.653
		c-34.089-5.517-68.81-13.349-91.839-33.13c-22.31-19.164-32.701-48.124-32.701-91.139v-35.449h-22.199
		c-5.771,0-10.467,4.695-10.467,10.467v61.087c0,14.042-11.424,25.467-25.466,25.467h-36.5c-4.142,0-7.5-3.357-7.5-7.5
		C131.883,245.47,116.882,245.47,116.882,245.475z"/>
	<path style="fill:#FCDB5A;" d="M455,422.326h-2.082H240.091c-0.801,0-1.598-0.129-2.358-0.381l-99.56-32.98H15.589l3.656,48.306
		h112.638v-25.86c0-2.408,1.157-4.67,3.109-6.08s4.462-1.799,6.75-1.039l99.56,32.979H455V422.326z"/>
	<path style="fill:#4D3D36;" d="M462.5,407.326h-2.283c-1.339-27.771-10.179-51.094-26.373-69.385
		c-17.089-19.304-42.295-32.124-72.893-37.075c-77.405-12.526-111.937-31.304-111.937-109.462V18.043c0-1.991-0.792-3.9-2.2-5.307
		c-1.406-1.404-3.313-2.193-5.3-2.193c-0.01,0-229.233,0.294-229.233,0.294c-4.138,0.005-7.49,3.361-7.49,7.5v356.144
		c-1.05,0.407-2.009,1.041-2.791,1.884c-1.419,1.531-2.136,3.584-1.979,5.666l4.77,63.022v6.904c0,4.143,3.358,7.5,7.5,7.5
		c4.036,0,7.319-3.19,7.484-7.187H36.58c0.166,3.996,3.448,7.187,7.484,7.187s7.319-3.19,7.484-7.187h16.804
		c0.166,3.996,3.448,7.187,7.484,7.187s7.319-3.19,7.484-7.187h16.805c0.166,3.996,3.448,7.187,7.484,7.187s7.319-3.19,7.484-7.187
		h16.805c0.166,3.996,3.448,7.187,7.484,7.187c4.142,0,7.5-3.357,7.5-7.5v-30.162l85.708,28.392v1.771c0,4.143,3.358,7.5,7.5,7.5
		c4.036,0,7.319-3.19,7.484-7.187h16.805c0.166,3.996,3.448,7.187,7.484,7.187s7.319-3.19,7.484-7.187h16.804
		c0.166,3.996,3.448,7.187,7.484,7.187s7.319-3.19,7.484-7.187h16.805c0.166,3.996,3.448,7.187,7.484,7.187s7.319-3.19,7.484-7.187
		h16.804c0.166,3.996,3.448,7.187,7.484,7.187s7.319-3.19,7.484-7.187h16.805c0.166,3.996,3.448,7.187,7.484,7.187
		s7.319-3.19,7.484-7.187h16.804c0.166,3.996,3.448,7.187,7.484,7.187s7.319-3.19,7.484-7.187h16.805
		c0.166,3.996,3.448,7.187,7.484,7.187c4.142,0,7.5-3.357,7.5-7.5v-37.131C470,410.683,466.642,407.326,462.5,407.326z
		 M234.015,140.955h-22.199c-14.042,0-25.467,11.425-25.467,25.467v61.087c0,5.771-4.695,10.467-10.466,10.467h-36.5
		c-4.14,0-7.497,3.355-7.5,7.495c0,4.147,3.358,7.505,7.5,7.505h36.5c14.042,0,25.466-11.425,25.466-25.467v-61.087
		c0-5.771,4.695-10.467,10.467-10.467h22.199v35.449c0,43.015,10.391,71.975,32.701,91.139c23.029,19.781,57.75,27.613,91.839,33.13
		c53.42,8.646,83.951,41.071,86.665,91.653H241.301l-99.56-32.98c-0.761-0.252-1.557-0.381-2.358-0.381H94.78H19.791v-85.056h28.278
		c21.623,0,39.213,17.591,39.213,39.213v23.343c0,4.142,3.357,7.499,7.498,7.5c4.144,0,7.502-3.357,7.502-7.5v-23.343
		c0-29.894-24.32-54.213-54.213-54.213H19.791v-20.934h89.591c4.142,0,7.5-3.357,7.5-7.5c-0.003-4.145-3.36-7.5-7.5-7.5H19.791
		V25.828l214.224-0.274V140.955z M241.301,437.27l-99.56-32.979c-2.287-0.76-4.797-0.371-6.75,1.039s-3.109,3.672-3.109,6.08v25.86
		H19.245l-3.656-48.306h122.584l99.56,32.98c0.761,0.252,1.557,0.381,2.358,0.381h212.827H455v14.944H241.301z"/>
</g>
<g>
</g>
<g>
</g>
<g>
</g>
<g>
</g>
<g>
</g>
<g>
</g>
<g>
</g>
<g>
</g>
<g>
</g>
<g>
</g>
<g>
</g>
<g>
</g>
<g>
</g>
<g>
</g>
<g>
</g>
</svg>
