<?xml version="1.0" encoding="iso-8859-1"?>
<!-- Generator: Adobe Illustrator 19.0.0, SVG Export Plug-In . SVG Version: 6.00 Build 0)  -->
<svg version="1.1" id="Capa_1" xmlns="http://www.w3.org/2000/svg" xmlns:xlink="http://www.w3.org/1999/xlink" x="0px" y="0px"
	 viewBox="0 0 470 470" style="enable-background:new 0 0 470 470;" xml:space="preserve">
<g>
	<path style="fill:#FCDB5A;" d="M176.477,360.8l-30.166-30.166l-87.952,87.952c-8.316,8.317-8.316,21.849,0,30.166
		c4.029,4.029,9.385,6.247,15.083,6.247c5.697,0,11.054-2.218,15.083-6.247L176.477,360.8z"/>
	<path style="fill:#BCC987;" d="M191.946,318.357c-0.173-0.144-0.343-0.294-0.505-0.456c-0.163-0.163-0.313-0.333-0.457-0.506
		l-10.217-10.217c-1.469-1.469-3.422-2.278-5.5-2.278c-2.078,0-4.031,0.809-5.5,2.278l-12.851,12.851l30.166,30.166l12.851-12.851
		c3.032-3.033,3.032-7.967,0-10.999L191.946,318.357z"/>
	<path style="fill:#BCC987;" d="M249.77,44.678c34.852,29.946,68.207,65.277,98.091,104.07c2.528,3.282,1.917,7.991-1.364,10.519
		c-1.364,1.05-2.974,1.559-4.572,1.559c-2.247,0-4.469-1.005-5.947-2.923c-40.072-52.018-86.456-97.634-134.196-131.994
		c-13.448-3.998-26.914-6.945-40.29-8.758c78.794,47.85,153.871,126.082,210.34,219.82l10.917-10.917
		c-9.179-15.066-18.952-29.931-29.11-44.258c-2.396-3.379-1.599-8.06,1.78-10.456c3.378-2.396,8.061-1.599,10.456,1.78
		c9.66,13.624,18.976,27.727,27.781,42.027l22.072-22.07C371.144,126.755,312.08,74.923,249.77,44.678z"/>
	<path style="fill:#4D3D36;" d="M431.648,189.939c-37.404-57.199-85.7-105.261-139.665-138.99C238.653,17.618,182.713,0,130.21,0
		c-0.516,0-1.026,0.001-1.542,0.005c-3.464,0.023-6.461,2.416-7.252,5.788c-0.791,3.373,0.831,6.848,3.924,8.408
		c87.759,44.274,173.367,129.27,235.561,233.707l-17.342,17.341H236.592c-1.989,0-3.897,0.79-5.303,2.197l-34.52,34.521
		l-5.395-5.395c-4.302-4.302-10.022-6.671-16.106-6.671c-6.084,0-11.804,2.369-16.106,6.671L47.752,407.98
		c-14.165,14.165-14.165,37.213,0,51.378C54.614,466.221,63.737,470,73.442,470c9.704,0,18.827-3.779,25.689-10.641L210.54,347.95
		c8.881-8.881,8.881-23.331,0-32.212l-3.165-3.165l32.323-32.324h106.967c1.989,0,3.896-0.79,5.303-2.197l78.705-78.705
		C433.184,196.837,433.591,192.911,431.648,189.939z M58.359,448.752c-8.316-8.317-8.316-21.849,0-30.166l87.952-87.952
		l30.166,30.166l-87.952,87.952C84.496,452.781,79.139,455,73.442,455C67.744,455,62.388,452.781,58.359,448.752z M199.934,337.343
		l-12.851,12.851l-30.166-30.166l12.851-12.851c1.469-1.469,3.422-2.278,5.5-2.278c2.077,0,4.03,0.809,5.5,2.278l10.217,10.217
		c0.145,0.173,0.295,0.343,0.457,0.506c0.162,0.162,0.332,0.312,0.505,0.456l7.987,7.987
		C202.966,329.376,202.966,334.311,199.934,337.343z M393.659,215.147c-8.805-14.299-18.121-28.403-27.781-42.027
		c-2.396-3.379-7.078-4.176-10.456-1.78c-3.379,2.396-4.176,7.077-1.78,10.456c10.158,14.326,19.931,29.192,29.11,44.258
		l-10.917,10.917C315.365,143.232,240.288,65,161.494,17.15c13.376,1.813,26.842,4.759,40.29,8.758
		c47.739,34.36,94.123,79.976,134.196,131.994c1.478,1.918,3.7,2.923,5.947,2.923c1.598,0,3.208-0.509,4.572-1.559
		c3.281-2.528,3.892-7.237,1.364-10.519c-29.884-38.793-63.239-74.125-98.091-104.07c62.31,30.245,121.374,82.078,165.96,148.4
		L393.659,215.147z"/>
</g>
<g>
</g>
<g>
</g>
<g>
</g>
<g>
</g>
<g>
</g>
<g>
</g>
<g>
</g>
<g>
</g>
<g>
</g>
<g>
</g>
<g>
</g>
<g>
</g>
<g>
</g>
<g>
</g>
<g>
</g>
</svg>
