<?xml version="1.0" encoding="iso-8859-1"?>
<!-- Generator: Adobe Illustrator 19.0.0, SVG Export Plug-In . SVG Version: 6.00 Build 0)  -->
<svg version="1.1" id="Capa_1" xmlns="http://www.w3.org/2000/svg" xmlns:xlink="http://www.w3.org/1999/xlink" x="0px" y="0px"
	 viewBox="0 0 470 470" style="enable-background:new 0 0 470 470;" xml:space="preserve">
<g>
	<path style="fill:#FFAD61;" d="M235,15C113.691,15,15,113.691,15,235s98.691,220,220,220s220-98.691,220-220S356.309,15,235,15z
		 M235,440c-113.037,0-205-91.962-205-205S121.963,30,235,30s205,91.962,205,205S348.037,440,235,440z"/>
	<path style="fill:#4D3D36;" d="M401.17,68.83C356.784,24.444,297.771,0,235,0S113.216,24.444,68.83,68.83S0,172.229,0,235
		s24.444,121.784,68.83,166.17S172.229,470,235,470s121.784-24.444,166.17-68.83S470,297.771,470,235S445.556,113.216,401.17,68.83z
		 M235,455c-121.309,0-220-98.691-220-220S113.691,15,235,15s220,98.691,220,220S356.309,455,235,455z"/>
	<path style="fill:#4D3D36;" d="M235,30C121.963,30,30,121.962,30,235s91.963,205,205,205s205-91.962,205-205S348.037,30,235,30z
		 M408.618,312.143h-25.047v-41.429h38.048C418.859,285.167,414.461,299.044,408.618,312.143z M270.714,421.619v-38.048h41.429
		v25.047C299.044,414.461,285.167,418.859,270.714,421.619z M48.381,270.714h38.048v41.429H61.382
		C55.539,299.044,51.141,285.167,48.381,270.714z M45,235c0-7,0.392-13.909,1.134-20.714h40.295v41.429H46.134
		C45.392,248.909,45,242,45,235z M61.382,157.857h25.047v41.429H48.381C51.141,184.833,55.539,170.956,61.382,157.857z
		 M199.286,48.381v38.048h-41.429V61.382C170.956,55.539,184.833,51.141,199.286,48.381z M421.619,199.286h-38.048v-41.429h25.047
		C414.461,170.956,418.859,184.833,421.619,199.286z M327.143,312.143v-41.429h41.429v41.429H327.143z M368.571,327.143v41.428
		h-41.429v-41.428H368.571z M263.214,302.143c-4.143,0-7.5,3.358-7.5,7.5v2.5h-41.428v-41.429h41.428v8.929
		c0,4.142,3.357,7.5,7.5,7.5s7.5-3.358,7.5-7.5v-8.929h41.429v41.429h-41.429v-2.5C270.714,305.501,267.356,302.143,263.214,302.143
		z M101.429,312.143v-41.429h41.429v41.429H101.429z M142.857,327.143v41.428h-41.429v-41.428H142.857z M255.714,199.286h-41.428
		v-41.429h41.428V199.286z M270.714,157.857h41.429v41.429h-41.429V157.857z M214.286,214.286h41.428v41.429h-41.428V214.286z
		 M199.286,255.714h-41.429v-41.429h41.429V255.714z M199.286,199.286h-41.429v-41.429h41.429V199.286z M142.857,199.286h-41.429
		v-41.429h41.429V199.286z M142.857,214.286v41.429h-41.429v-41.429H142.857z M157.857,270.714h41.429v41.429h-41.429V270.714z
		 M327.143,255.714v-8.929c0-4.142-3.357-7.5-7.5-7.5s-7.5,3.358-7.5,7.5v8.929h-41.429v-41.429h41.429v2.5
		c0,4.142,3.357,7.5,7.5,7.5s7.5-3.358,7.5-7.5v-2.5h41.429v41.429H327.143z M327.143,199.286v-41.429h41.429v41.429H327.143z
		 M327.143,142.857v-41.428h41.429v41.428H327.143z M383.571,142.857v-26.148c6.536,8.193,12.408,16.936,17.538,26.148H383.571z
		 M327.143,86.429V68.89c9.212,5.13,17.955,11.002,26.148,17.539H327.143z M312.143,86.429h-41.429V48.381
		c14.453,2.76,28.33,7.158,41.429,13.001V86.429z M312.143,101.429v41.428h-41.429v-41.428H312.143z M255.714,142.857h-41.428
		v-41.428h41.428V142.857z M199.286,142.857h-41.429v-9.406c0-4.142-3.357-7.5-7.5-7.5s-7.5,3.358-7.5,7.5v9.406h-41.429v-41.428
		h41.429v2.022c0,4.142,3.357,7.5,7.5,7.5s7.5-3.358,7.5-7.5v-2.022h41.429V142.857z M142.857,86.429h-26.148
		c8.193-6.537,16.936-12.408,26.148-17.539V86.429z M86.429,142.857H68.89c5.13-9.212,11.002-17.955,17.538-26.148V142.857z
		 M86.429,327.143v26.148c-6.536-8.193-12.408-16.936-17.538-26.148H86.429z M142.857,383.571v17.539
		c-9.212-5.13-17.955-11.002-26.148-17.539H142.857z M157.857,383.571h41.429v38.048c-14.453-2.76-28.33-7.158-41.429-13.001
		V383.571z M157.857,368.571v-41.428h41.429v41.428H157.857z M214.286,327.143h41.428v41.428h-41.428V327.143z M270.714,327.143
		h41.429v41.428h-41.429V327.143z M327.143,383.571h26.148c-8.193,6.537-16.936,12.408-26.148,17.539V383.571z M383.571,327.143
		h17.538c-5.13,9.212-11.002,17.955-17.538,26.148V327.143z M383.571,255.714v-41.429h40.295C424.608,221.091,425,228,425,235
		s-0.392,13.909-1.134,20.714H383.571z M255.714,86.429h-41.428V46.134C221.092,45.392,228,45,235,45s13.908,0.392,20.714,1.134
		V86.429z M214.286,383.571h41.428v40.295C248.908,424.608,242,425,235,425s-13.908-0.392-20.714-1.134V383.571z"/>
</g>
<g>
</g>
<g>
</g>
<g>
</g>
<g>
</g>
<g>
</g>
<g>
</g>
<g>
</g>
<g>
</g>
<g>
</g>
<g>
</g>
<g>
</g>
<g>
</g>
<g>
</g>
<g>
</g>
<g>
</g>
</svg>
